# Blender v2.90.1 OBJ File: ''
# www.blender.org
mtllib drawer_compartment.mtl
o drawer_compartment
v 0.884999 0.200000 0.530000
v 0.884999 0.620000 0.700000
v 0.884999 0.620000 0.530000
v 0.884999 0.200000 0.700000
v 0.375000 0.620000 0.530000
v 0.375000 0.200000 0.530000
v 0.355000 0.179999 0.509999
v 0.905000 0.620000 0.509999
v 0.905000 0.179999 0.509999
v 0.355000 0.620000 0.509999
v 0.375000 0.200000 0.700000
v 0.375000 0.620000 0.700000
v 0.905000 0.620000 0.700000
v 0.355000 0.620000 0.700000
v 0.905000 0.179999 0.700000
v 0.355000 0.179999 0.700000
vt 0.000055 0.000055
vt 0.303593 0.999945
vt 0.000055 0.999945
vt 0.303593 0.000055
vt 0.910634 0.000096
vt 0.000095 0.999904
vt 0.000095 0.000095
vt 0.910634 0.999905
vt 0.000097 0.999903
vt 0.937413 0.000097
vt 0.937413 0.999903
vt 0.000097 0.000097
vt 0.000055 0.000055
vt 0.303593 0.999945
vt 0.000055 0.999945
vt 0.303593 0.000055
vt 0.078975 0.000028
vt 0.000028 0.894710
vt 0.000029 0.000028
vt 0.027290 0.963619
vt 0.000017 0.999983
vt 0.027290 0.036379
vt 0.078975 0.999972
vt 0.000028 0.105290
vt 0.078971 0.999972
vt 0.000028 0.999972
vt 0.078971 0.000028
vt 0.000017 0.000017
vt 0.000050 0.999950
vt 0.250025 0.000050
vt 0.250025 0.999950
vt 0.000050 0.000050
vt 0.000077 0.036435
vt 0.000077 0.000077
vt 0.572715 0.036436
vt 0.572716 0.963561
vt 0.000110 0.999923
vt 0.000110 0.963564
vt 0.599985 0.999919
vt 0.599985 0.000078
vt 0.323885 0.999943
vt 0.323885 0.000057
vt 0.000057 0.999943
vt 0.013687 0.979248
vt 0.763380 0.546793
vt 0.763602 0.978564
vt 0.013465 0.547478
vt 0.999932 0.460614
vt 0.000068 0.000068
vt 0.999932 0.000068
vt 0.000068 0.460614
vn -0.5774 0.5774 0.5774
vn -0.5774 0.5773 0.5774
vn -0.3015 0.9045 0.3015
vn -0.3015 0.3015 0.9045
vn 0.3015 0.9045 0.3015
vn 0.5774 0.5774 0.5774
vn -0.5774 -0.5774 -0.5774
vn 0.5774 0.5773 -0.5774
vn 0.5774 -0.5774 -0.5774
vn -0.5773 0.5773 -0.5774
vn 0.3015 0.3015 0.9045
vn 0.5774 -0.5774 0.5774
vn -0.5774 -0.5774 0.5774
usemtl Default_OBJ
s 1
f 1/1/1 2/2/2 3/3/3
f 2/2/2 1/1/1 4/4/4
f 5/5/5 1/6/1 3/7/3
f 1/6/1 5/5/5 6/8/6
f 7/9/7 8/10/8 9/11/9
f 8/10/8 7/9/7 10/12/10
f 11/13/11 5/14/5 12/15/6
f 5/14/5 11/13/11 6/16/6
f 13/17/6 3/18/3 2/19/2
f 3/20/3 8/21/8 5/22/5
f 8/23/8 3/18/3 13/17/6
f 5/24/5 14/25/1 12/26/6
f 5/24/5 10/27/10 14/25/1
f 10/28/10 5/22/5 8/21/8
f 1/29/1 11/30/11 4/31/4
f 11/30/11 1/29/1 6/32/6
f 12/33/6 14/34/1 11/35/11
f 4/36/4 13/37/6 2/38/2
f 13/37/6 4/36/4 15/39/12
f 11/35/11 15/39/12 4/36/4
f 11/35/11 16/40/13 15/39/12
f 16/40/13 11/35/11 14/34/1
f 7/41/7 14/34/1 10/42/10
f 14/34/1 7/41/7 16/43/13
f 15/44/12 8/45/8 13/46/6
f 8/45/8 15/44/12 9/47/9
f 7/48/7 15/49/12 16/50/13
f 15/49/12 7/48/7 9/51/9
