# Blender v2.93.1 OBJ File: ''
# www.blender.org
o convex_0
v -0.073252 -0.013606 -0.002103
v -0.083278 -0.011100 -0.002103
v -0.084529 -0.002326 -0.003984
v -0.025652 0.015216 0.003536
v -0.020631 0.013961 0.003536
v -0.025652 0.015216 -0.003984
v -0.095814 0.002682 0.003536
v -0.020631 -0.016114 -0.002103
v -0.020631 -0.016114 0.001656
v -0.049465 0.015216 -0.000223
v -0.020631 -0.008594 0.003536
v -0.020631 -0.006086 -0.003984
v -0.092052 0.002682 -0.003984
v -0.046954 0.015216 0.003536
v -0.045703 0.015216 -0.003984
v -0.070750 -0.007340 0.003536
v -0.072001 -0.004835 -0.003984
v -0.020631 0.013961 -0.003984
v -0.053226 -0.016114 0.001656
v -0.049465 -0.016114 -0.002103
v -0.088290 -0.003580 0.003536
v -0.074512 -0.013606 0.001656
v -0.105839 0.001428 0.001656
v -0.104580 -0.001075 0.001656
v -0.102078 0.002682 -0.002103
v -0.104580 0.000176 -0.002103
v -0.088290 -0.001075 -0.003984
v -0.087039 0.006442 -0.002103
v -0.059490 -0.006086 -0.003984
v -0.063235 -0.014860 -0.002103
v -0.058239 -0.008594 0.003536
v -0.084529 -0.011100 0.001656
v -0.090801 -0.008594 0.001656
v -0.049465 0.015216 0.001656
v -0.093303 0.005187 0.001656
v -0.103329 0.002682 0.001656
v -0.054477 0.013961 -0.002103
v -0.098316 -0.004835 -0.002103
v -0.093303 -0.007340 -0.002103
v -0.100827 -0.003580 0.001656
v -0.093303 0.005187 -0.000223
v -0.065737 -0.014860 -0.000223
v -0.093303 -0.001075 0.003536
v -0.060741 0.011456 -0.003984
v -0.084529 -0.011100 -0.000223
v -0.104580 -0.001075 -0.000223
v -0.090801 0.000176 -0.003984
v -0.105839 0.001428 -0.000223
v -0.065737 -0.014860 0.001656
vn -0.0542 -0.2167 -0.9747
vn 0.2425 0.9702 0.0000
vn 0.0000 0.0000 1.0000
vn 1.0000 0.0000 0.0000
vn 0.0000 1.0000 0.0000
vn 0.0000 0.0000 -1.0000
vn 0.0000 -1.0000 0.0000
vn 0.0000 -0.2425 0.9702
vn 0.0000 -0.1844 -0.9829
vn -0.0550 -0.2564 0.9650
vn -0.1730 -0.0870 0.9811
vn -0.1813 0.1811 -0.9666
vn -0.1889 0.7557 -0.6270
vn -0.0201 -0.2014 -0.9793
vn -0.0184 -0.2021 -0.9792
vn -0.0259 -0.2586 0.9656
vn -0.0258 -0.2061 -0.9782
vn -0.0686 -0.2740 0.9593
vn -0.1183 -0.2961 0.9478
vn -0.2230 0.9748 0.0000
vn -0.2137 0.9342 0.2855
vn -0.2183 0.4369 0.8727
vn -0.1763 0.6871 0.7048
vn -0.1892 0.7573 0.6251
vn -0.1763 0.9684 -0.1764
vn -0.2089 0.9049 -0.3709
vn -0.4470 -0.8945 -0.0009
vn -0.0841 -0.2242 -0.9709
vn -0.4473 -0.8944 -0.0002
vn -0.2395 0.9579 -0.1586
vn -0.2565 0.9628 -0.0854
vn -0.2424 0.9702 0.0000
vn -0.2227 0.9733 -0.0561
vn -0.2239 0.9696 -0.0988
vn -0.0900 -0.9887 -0.1199
vn -0.0865 -0.9925 -0.0865
vn -0.1520 -0.9871 -0.0509
vn -0.1226 -0.9790 -0.1631
vn -0.1421 -0.2843 0.9482
vn -0.1634 -0.1092 0.9805
vn -0.1422 -0.2843 0.9481
vn -0.1596 -0.2392 0.9578
vn -0.1540 0.5497 -0.8210
vn -0.1889 0.7555 -0.6273
vn -0.2284 -0.9705 -0.0766
vn -0.2394 -0.9578 -0.1593
vn -0.2427 -0.9701 0.0000
vn -0.3710 -0.9286 0.0000
vn -0.3839 -0.9219 -0.0520
vn -0.3420 -0.9117 -0.2276
vn -0.8934 -0.4494 0.0000
vn -0.5543 -0.6929 -0.4612
vn -0.5289 -0.8457 -0.0710
vn -0.5552 -0.8317 0.0000
vn -0.1334 -0.1667 -0.9769
vn -0.1350 -0.0674 -0.9886
vn -0.1043 -0.2087 -0.9724
vn -0.1040 -0.2087 -0.9724
vn -0.5144 0.5136 -0.6867
vn -0.4469 0.8946 0.0000
vn -0.3685 0.9215 -0.1226
vn -0.8559 -0.4305 -0.2865
vn -0.0380 -0.2661 0.9632
vn -0.1415 -0.9899 0.0000
vn -0.0997 -0.9950 0.0000
vn -0.0728 -0.2190 -0.9730
vn -0.0408 -0.2039 -0.9781
usemtl Default_OBJ
s off
f 1//1 2//1 3//1
f 4//2 5//2 6//2
f 5//3 4//3 7//3
f 8//4 5//4 9//4
f 4//5 6//5 10//5
f 5//3 7//3 11//3
f 9//4 5//4 11//4
f 5//4 8//4 12//4
f 13//6 6//6 12//6
f 7//3 4//3 14//3
f 4//5 10//5 14//5
f 6//6 13//6 15//6
f 10//5 6//5 15//5
f 11//3 7//3 16//3
f 13//6 12//6 17//6
f 6//2 5//2 18//2
f 5//4 12//4 18//4
f 12//6 6//6 18//6
f 8//7 9//7 19//7
f 9//8 11//8 19//8
f 12//9 8//9 20//9
f 8//7 19//7 20//7
f 16//3 7//3 21//3
f 22//10 16//10 21//10
f 7//11 23//11 24//11
f 25//12 13//12 26//12
f 13//6 17//6 27//6
f 15//13 25//13 28//13
f 17//6 12//6 29//6
f 30//14 17//14 29//14
f 12//9 20//9 29//9
f 20//15 30//15 29//15
f 11//3 16//3 31//3
f 19//8 11//8 31//8
f 16//16 19//16 31//16
f 17//17 30//17 1//17
f 22//18 21//18 32//18
f 21//19 33//19 32//19
f 14//5 10//5 34//5
f 10//20 35//20 34//20
f 35//21 14//21 34//21
f 23//22 7//22 36//22
f 7//23 14//23 36//23
f 14//24 35//24 36//24
f 10//25 15//25 37//25
f 15//26 28//26 37//26
f 33//27 38//27 39//27
f 27//28 2//28 39//28
f 38//29 33//29 40//29
f 35//20 10//20 41//20
f 28//30 25//30 41//30
f 25//31 36//31 41//31
f 36//32 35//32 41//32
f 10//33 37//33 41//33
f 37//34 28//34 41//34
f 30//35 20//35 42//35
f 20//36 19//36 42//36
f 22//37 1//37 42//37
f 1//38 30//38 42//38
f 21//3 7//3 43//3
f 33//39 21//39 43//39
f 7//40 24//40 43//40
f 40//41 33//41 43//41
f 24//42 40//42 43//42
f 15//6 13//6 44//6
f 13//43 25//43 44//43
f 25//44 15//44 44//44
f 1//45 22//45 45//45
f 2//46 1//46 45//46
f 22//47 32//47 45//47
f 32//48 33//48 45//48
f 33//49 39//49 45//49
f 39//50 2//50 45//50
f 24//51 23//51 46//51
f 26//52 38//52 46//52
f 38//53 40//53 46//53
f 40//54 24//54 46//54
f 38//55 26//55 47//55
f 26//56 13//56 47//56
f 13//6 27//6 47//6
f 39//57 38//57 47//57
f 27//58 39//58 47//58
f 25//59 26//59 48//59
f 23//60 36//60 48//60
f 36//61 25//61 48//61
f 46//51 23//51 48//51
f 26//62 46//62 48//62
f 16//63 22//63 49//63
f 19//16 16//16 49//16
f 22//64 42//64 49//64
f 42//65 19//65 49//65
f 27//6 17//6 3//6
f 2//66 27//66 3//66
f 17//67 1//67 3//67
o convex_1
v -0.001826 0.015216 0.011053
v -0.020631 0.013957 0.003534
v -0.016857 0.012706 0.009174
v 0.107193 -0.024881 0.012935
v 0.055800 0.013957 0.012935
v -0.006836 -0.013603 0.012935
v -0.008086 -0.012352 -0.013383
v -0.004325 0.012706 -0.013383
v 0.059561 0.012706 -0.013383
v -0.020631 -0.016108 -0.002102
v -0.006836 -0.019869 -0.003983
v 0.098421 -0.024881 -0.013383
v 0.098421 0.003934 0.012935
v 0.054551 0.015216 -0.009621
v 0.054551 0.015216 0.011053
v -0.003075 0.013957 0.012935
v -0.006836 -0.019869 0.003534
v 0.098421 -0.026140 0.011053
v 0.109691 -0.014858 -0.013383
v -0.001826 0.015216 -0.009621
v 0.099671 -0.026140 -0.011502
v 0.094660 0.006439 0.011053
v -0.020631 0.013957 -0.003983
v -0.020631 -0.016108 0.001655
v 0.099671 0.001428 -0.013383
v 0.110954 -0.002333 -0.003983
v 0.110954 -0.013603 0.011053
v 0.110954 -0.019869 -0.009621
v -0.009348 -0.011097 0.012935
v 0.107193 -0.026140 0.011053
v 0.108442 -0.024881 -0.011502
v 0.110954 -0.019869 0.011053
v 0.109691 -0.013603 0.012935
v 0.097159 -0.024881 0.012935
v -0.009348 -0.011097 -0.013383
v -0.016857 0.011455 0.011053
v -0.016857 0.007694 0.011053
v -0.016857 0.007694 -0.011502
v -0.016857 0.011455 -0.011502
v 0.108442 0.001428 0.003534
v 0.110954 -0.002333 0.003534
v 0.107193 -0.026140 -0.011502
v 0.067083 0.012706 0.003534
v 0.089637 0.007694 -0.003983
v -0.009348 0.006439 0.012935
v 0.107193 -0.024881 -0.013383
v 0.098421 -0.026140 -0.009621
v -0.020631 -0.008591 0.003534
v -0.009348 0.005184 -0.013383
v 0.104681 0.003934 0.003534
v 0.104681 0.003934 -0.003983
v 0.098421 0.005188 -0.011502
v 0.065834 0.012706 -0.011502
v -0.020631 -0.006085 -0.003983
v 0.107193 0.002683 -0.003983
v 0.097159 0.003934 -0.013383
v 0.110954 -0.018614 -0.011502
v 0.094660 0.006439 -0.009621
v 0.107193 -0.009846 -0.013383
v 0.108442 -0.024881 0.011053
v 0.067083 0.012706 -0.003983
v -0.016857 0.012706 -0.009621
v -0.018119 0.011455 0.009174
v -0.018119 0.007694 -0.009621
vn -0.1958 0.9215 0.3354
vn 0.0000 0.0000 1.0000
vn 0.0000 0.0000 -1.0000
vn -0.2873 -0.7664 -0.5746
vn -0.0922 -0.7836 -0.6144
vn 0.0000 0.8318 -0.5550
vn 0.0000 0.8310 0.5562
vn -0.2630 -0.9648 0.0000
vn -0.0595 -0.9982 0.0000
vn 0.0000 1.0000 0.0000
vn -0.0865 -0.8535 -0.5138
vn 0.1903 0.8696 0.4557
vn 0.1754 0.7459 0.6426
vn -1.0000 0.0000 0.0000
vn -0.2895 -0.7965 0.5309
vn -0.0668 0.9978 0.0000
vn 1.0000 0.0000 0.0000
vn -0.4942 -0.4954 0.7144
vn 0.0000 -0.8310 0.5562
vn 0.0000 -1.0000 0.0000
vn 0.8940 -0.4481 0.0000
vn 0.5740 -0.1271 0.8089
vn 0.8302 0.0000 0.5574
vn -0.0899 -0.8287 0.5524
vn -0.0875 -0.8540 0.5129
vn -0.4936 -0.4964 -0.7141
vn -0.2430 0.0000 0.9700
vn -0.6518 -0.1869 0.7350
vn -0.6518 -0.1869 -0.7350
vn -0.2430 0.0000 -0.9700
vn 0.6690 0.4468 0.5940
vn 0.8316 0.5554 0.0000
vn 0.6694 0.4302 0.6057
vn 0.7781 0.3486 0.5225
vn 0.0000 -0.8310 -0.5562
vn 0.7099 -0.7043 0.0000
vn 0.1964 0.9805 0.0000
vn 0.2137 0.9764 0.0302
vn 0.2195 0.9756 0.0081
vn -0.1574 0.1314 0.9788
vn 0.6421 -0.6371 -0.4264
vn -0.0616 -0.9973 -0.0409
vn -0.6633 -0.1815 0.7260
vn -0.1579 0.1054 -0.9818
vn 0.5202 0.7807 0.3464
vn 0.4284 0.8574 0.2853
vn 0.2425 0.9701 0.0000
vn 0.1799 0.7796 -0.5998
vn 0.1280 0.8952 -0.4268
vn -0.7891 -0.1133 -0.6037
vn 0.7996 0.5996 -0.0328
vn 0.6408 0.5031 -0.5799
vn 0.6492 0.4868 -0.5845
vn 0.4352 0.8739 -0.2166
vn 0.5539 0.8313 0.0468
vn 0.4458 0.8951 0.0000
vn 0.1773 0.7598 -0.6255
vn 0.5131 0.5143 -0.6871
vn 0.9333 0.1506 -0.3260
vn 0.9009 -0.3611 -0.2409
vn 0.6416 -0.1599 -0.7501
vn 0.7902 -0.3167 -0.5247
vn 0.2810 0.9568 -0.0744
vn 0.2424 0.9702 0.0000
vn 0.2205 0.9557 -0.1948
vn 0.7282 0.3629 -0.5814
vn 0.6571 0.4384 -0.6133
vn 0.6421 -0.6371 0.4264
vn 0.7688 -0.3853 0.5105
vn 0.2169 0.9762 0.0000
vn 0.2114 0.9768 -0.0351
vn 0.2169 0.9759 -0.0240
vn 0.2145 0.9761 -0.0356
vn -0.1640 0.8214 -0.5463
vn -0.4828 0.7292 -0.4850
vn -0.1565 0.9369 -0.3126
vn -0.1444 0.8647 -0.4810
vn -0.7646 0.3896 0.5134
vn -0.8302 0.0000 0.5574
vn -0.9135 0.0000 0.4069
vn -0.8607 -0.0350 0.5079
vn -0.8832 0.0640 -0.4646
vn -0.8304 0.0000 -0.5571
vn -0.9135 0.0000 -0.4070
vn -0.8280 -0.0764 -0.5555
vn -0.2211 0.8118 0.5404
vn -0.2015 0.8706 0.4489
vn -0.4833 0.7288 0.4851
usemtl Default_OBJ
s off
f 50//68 51//68 52//68
f 53//69 54//69 55//69
f 56//70 57//70 58//70
f 59//71 56//71 60//71
f 56//70 58//70 61//70
f 60//72 56//72 61//72
f 54//69 53//69 62//69
f 58//73 57//73 63//73
f 54//74 64//74 65//74
f 55//69 54//69 65//69
f 59//75 60//75 66//75
f 60//76 67//76 66//76
f 61//70 58//70 68//70
f 64//77 63//77 69//77
f 63//73 57//73 69//73
f 60//78 61//78 70//78
f 64//79 54//79 71//79
f 54//80 62//80 71//80
f 72//81 59//81 73//81
f 59//75 66//75 73//75
f 66//82 55//82 73//82
f 65//74 64//74 50//74
f 69//83 72//83 50//83
f 64//77 69//77 50//77
f 72//81 73//81 51//81
f 50//83 72//83 51//83
f 68//70 58//70 74//70
f 75//84 76//84 77//84
f 55//69 65//69 78//69
f 73//85 55//85 78//85
f 53//86 67//86 79//86
f 67//87 70//87 79//87
f 80//88 77//88 81//88
f 77//84 76//84 81//84
f 62//69 53//69 82//69
f 53//89 81//89 82//89
f 81//90 76//90 82//90
f 53//69 55//69 83//69
f 67//86 53//86 83//86
f 55//91 66//91 83//91
f 66//92 67//92 83//92
f 56//93 59//93 84//93
f 57//70 56//70 84//70
f 78//94 85//94 86//94
f 73//95 78//95 86//95
f 84//96 59//96 87//96
f 88//97 84//97 87//97
f 89//98 62//98 90//98
f 75//99 89//99 90//99
f 76//84 75//84 90//84
f 62//100 82//100 90//100
f 82//101 76//101 90//101
f 70//102 61//102 91//102
f 80//103 79//103 91//103
f 79//87 70//87 91//87
f 63//104 64//104 92//104
f 64//105 71//105 92//105
f 71//106 93//106 92//106
f 65//107 85//107 94//107
f 78//69 65//69 94//69
f 85//94 78//94 94//94
f 61//70 68//70 95//70
f 80//108 91//108 95//108
f 91//102 61//102 95//102
f 67//76 60//76 96//76
f 60//109 70//109 96//109
f 70//87 67//87 96//87
f 51//81 73//81 97//81
f 73//110 86//110 97//110
f 88//111 57//111 98//111
f 57//70 84//70 98//70
f 84//97 88//97 98//97
f 62//112 89//112 99//112
f 71//113 62//113 99//113
f 100//114 71//114 99//114
f 101//115 58//115 102//115
f 58//116 63//116 102//116
f 59//81 72//81 103//81
f 87//117 59//117 103//117
f 89//118 75//118 104//118
f 74//119 101//119 104//119
f 75//120 74//120 104//120
f 101//121 100//121 104//121
f 99//122 89//122 104//122
f 100//123 99//123 104//123
f 58//124 101//124 105//124
f 101//125 74//125 105//125
f 74//70 58//70 105//70
f 68//126 75//126 106//126
f 77//127 80//127 106//127
f 75//84 77//84 106//84
f 95//128 68//128 106//128
f 80//129 95//129 106//129
f 100//130 101//130 107//130
f 71//114 100//114 107//114
f 93//131 71//131 107//131
f 101//132 102//132 107//132
f 75//133 68//133 108//133
f 68//70 74//70 108//70
f 74//134 75//134 108//134
f 53//135 79//135 109//135
f 79//103 80//103 109//103
f 81//136 53//136 109//136
f 80//88 81//88 109//88
f 63//104 92//104 110//104
f 92//137 93//137 110//137
f 102//138 63//138 110//138
f 93//139 107//139 110//139
f 107//140 102//140 110//140
f 57//141 88//141 111//141
f 88//142 72//142 111//142
f 72//143 69//143 111//143
f 69//144 57//144 111//144
f 85//145 51//145 112//145
f 86//146 85//146 112//146
f 51//147 97//147 112//147
f 97//148 86//148 112//148
f 72//149 88//149 113//149
f 88//150 87//150 113//150
f 103//151 72//151 113//151
f 87//152 103//152 113//152
f 85//153 65//153 52//153
f 65//154 50//154 52//154
f 51//155 85//155 52//155
