# Blender v2.90.1 OBJ File: ''
# www.blender.org
mtllib bottom_left_shelf.mtl
o bottom_left_shelf
v 1.260000 -0.000000 1.085000
v 1.260000 0.219999 0.740000
v 1.260000 0.219999 1.085000
v 1.260000 -0.000000 0.740000
v 0.629999 0.219999 1.085000
v 0.629999 -0.000000 1.085000
v 0.629999 -0.000000 0.740000
v 0.629999 0.219999 0.740000
v 1.240000 0.020000 0.759999
v 0.650000 0.020000 1.065000
v 1.240000 0.020000 1.065000
v 0.650000 0.020000 0.759999
v 0.650000 0.219999 0.759999
v 0.650000 0.219999 1.065000
v 1.240000 0.219999 1.065000
v 1.240000 0.219999 0.759999
vt 0.901319 0.689026
vt 0.152836 0.048490
vt 0.902729 0.051439
vt 0.151426 0.686077
vt 0.882113 0.557086
vt 0.132865 0.908822
vt 0.132193 0.559655
vt 0.882786 0.906254
vt 0.812239 0.386111
vt 0.064936 0.745131
vt 0.062352 0.395979
vt 0.814823 0.735263
vt 0.132206 0.178420
vt 0.882576 0.815018
vt 0.132680 0.816009
vt 0.882102 0.177429
vt 0.076666 0.315442
vt 0.827888 0.828924
vt 0.077985 0.832326
vt 0.826569 0.312040
vt 0.837206 0.774168
vt 0.090348 0.219270
vt 0.840231 0.226635
vt 0.087323 0.766803
vt 0.491800 0.000070
vt 0.000070 0.999930
vt 0.000070 0.000070
vt 0.491800 0.999929
vt 0.837734 0.273753
vt 0.814326 0.306017
vt 0.087934 0.290329
vt 0.820345 0.790017
vt 0.844543 0.821227
vt 0.118152 0.805541
vt 0.112133 0.321540
vt 0.094742 0.837803
vt 0.000093 0.000093
vt 0.999906 0.874239
vt 0.000093 0.874239
vt 0.999906 0.000093
vt 0.898690 0.420639
vt 0.147994 0.756537
vt 0.148769 0.417592
vt 0.897915 0.759585
vt 0.999933 0.000067
vt 0.000067 0.451982
vt 0.000067 0.000067
vt 0.999933 0.451982
vn 0.5774 -0.5774 0.5774
vn 0.5774 0.5774 -0.5773
vn 0.5774 0.5774 0.5774
vn 0.5774 -0.5774 -0.5774
vn -0.5774 0.5774 0.5774
vn -0.5774 -0.5774 0.5774
vn -0.5774 -0.5774 -0.5774
vn -0.5774 0.5774 -0.5774
vn 0.5774 0.5774 -0.5774
vn 0.3015 0.9045 0.3015
vn 0.3015 0.9045 -0.3015
vn -0.3015 0.9045 -0.3015
vn -0.3015 0.9045 0.3015
usemtl Default_OBJ
s 1
f 1/1/1 2/2/2 3/3/3
f 2/2/2 1/1/1 4/4/4
f 5/5/5 1/6/1 3/7/3
f 1/6/1 5/5/5 6/8/6
f 7/9/7 2/10/2 4/11/4
f 2/10/2 7/9/7 8/12/8
f 7/13/7 5/14/5 8/15/8
f 5/14/5 7/13/7 6/16/6
f 9/17/5 10/18/9 11/19/8
f 10/18/9 9/17/5 12/20/3
f 7/21/7 1/22/1 6/23/6
f 1/22/1 7/21/7 4/24/4
f 10/25/9 13/26/10 14/27/11
f 13/26/10 10/25/9 12/28/3
f 3/29/3 15/30/12 5/31/5
f 3/29/3 16/32/13 15/30/12
f 16/32/13 2/33/2 13/34/10
f 2/33/2 16/32/13 3/29/3
f 14/35/11 5/31/5 15/30/12
f 13/34/10 5/31/5 14/35/11
f 13/34/10 8/36/8 5/31/5
f 8/36/8 13/34/10 2/33/2
f 9/37/5 15/38/12 16/39/13
f 15/38/12 9/37/5 11/40/8
f 13/41/10 9/42/5 16/43/13
f 9/42/5 13/41/10 12/44/3
f 10/45/9 15/46/12 11/47/8
f 15/46/12 10/45/9 14/48/11
