# Blender v2.92.0 OBJ File: ''
# www.blender.org
mtllib top_left_door_round_big_handle.mtl
o top_left_door
v 1.260000 0.219999 1.445000
v 1.260000 0.240000 1.085000
v 1.260000 0.240000 1.445000
v 1.260000 0.219999 1.085000
v 0.629999 0.240000 1.445000
v 0.629999 0.219999 1.445000
v 0.629999 0.219999 1.085000
v 0.629999 0.240000 1.085000
v 0.711108 0.240000 1.408859
v 0.711108 0.240000 1.393859
v 0.711108 0.240000 1.131467
v 0.678725 0.240000 1.393859
v 0.711108 0.240000 1.116467
v 0.678725 0.240000 1.408859
v 0.678725 0.240000 1.131467
v 0.678725 0.240000 1.116467
v 0.678725 0.275299 1.393859
v 0.711108 0.300760 1.397175
v 0.711108 0.301067 1.388178
v 0.708250 0.307965 1.392353
v 0.708353 0.307339 1.401027
v 0.705602 0.310614 1.394121
v 0.698703 0.313471 1.396455
v 0.700531 0.310363 1.403077
v 0.708353 0.307339 1.401027
v 0.711108 0.300291 1.401014
v 0.708353 0.307339 1.401027
v 0.703731 0.306510 1.406277
v 0.711108 0.298950 1.408859
v 0.711108 0.298042 1.311635
v 0.711108 0.298547 1.386833
v 0.711108 0.294253 1.393702
v 0.711108 0.290205 1.386701
v 0.711108 0.292576 1.394596
v 0.711108 0.284513 1.396907
v 0.707922 0.289122 1.389041
v 0.699833 0.285370 1.389284
v 0.697079 0.285367 1.381455
v 0.698135 0.285367 1.324034
v 0.705705 0.285369 1.383688
v 0.698701 0.285367 1.258040
v 0.698703 0.285367 1.192076
v 0.705602 0.288225 1.236891
v 0.705551 0.288268 1.258601
v 0.711108 0.297772 1.228535
v 0.708267 0.290925 1.249136
v 0.708250 0.290874 1.227557
v 0.711108 0.297772 1.148365
v 0.698702 0.313471 1.267752
v 0.698703 0.313471 1.341156
v 0.705602 0.310614 1.279022
v 0.705575 0.310597 1.266476
v 0.708250 0.307965 1.283465
v 0.711108 0.301067 1.361961
v 0.711108 0.301065 1.281805
v 0.708275 0.307877 1.271022
v 0.711108 0.300269 1.203887
v 0.711108 0.298785 1.138366
v 0.711108 0.299501 1.128823
v 0.708311 0.306486 1.131202
v 0.711108 0.299437 1.123164
v 0.711108 0.298537 1.116467
v 0.703260 0.306510 1.119049
v 0.708345 0.306433 1.123695
v 0.698197 0.313471 1.193775
v 0.704539 0.310517 1.127095
v 0.699686 0.310363 1.122249
v 0.697254 0.313471 1.128871
v 0.705602 0.288225 1.142887
v 0.698703 0.285367 1.143871
v 0.700531 0.282259 1.137249
v 0.707682 0.285498 1.136546
v 0.703731 0.278407 1.134049
v 0.711108 0.270434 1.131467
v 0.711108 0.286179 1.130240
v 0.707718 0.285455 1.136510
v 0.708250 0.290874 1.141826
v 0.707718 0.285533 1.136532
v 0.711108 0.293244 1.132163
v 0.711108 0.297772 1.138907
v 0.690147 0.310363 1.403077
v 0.692579 0.313471 1.396455
v 0.691636 0.313471 1.331551
v 0.685294 0.310517 1.398232
v 0.691131 0.313471 1.257574
v 0.691130 0.313471 1.184170
v 0.684232 0.310614 1.246304
v 0.684258 0.310597 1.258850
v 0.681583 0.307965 1.241861
v 0.678725 0.301067 1.163365
v 0.678725 0.301065 1.243521
v 0.681558 0.307877 1.254304
v 0.678725 0.300269 1.321439
v 0.678725 0.298785 1.386960
v 0.678725 0.299153 1.396036
v 0.681522 0.306485 1.394124
v 0.686573 0.306510 1.406277
v 0.681488 0.306433 1.401631
v 0.678725 0.298994 1.408859
v 0.678725 0.300760 1.128151
v 0.678725 0.301067 1.137148
v 0.681583 0.307965 1.132973
v 0.681480 0.307339 1.124299
v 0.684232 0.310614 1.131205
v 0.691130 0.313471 1.128871
v 0.689302 0.310363 1.122249
v 0.681480 0.307339 1.124299
v 0.678725 0.300106 1.122807
v 0.681480 0.307339 1.124299
v 0.686103 0.306510 1.119049
v 0.678725 0.298537 1.116467
v 0.678725 0.286458 1.130091
v 0.678725 0.270434 1.131467
v 0.686631 0.278407 1.134049
v 0.682191 0.284727 1.135966
v 0.690250 0.282259 1.137249
v 0.692755 0.285367 1.143871
v 0.691698 0.285367 1.201292
v 0.690982 0.288302 1.137561
v 0.691132 0.285367 1.267286
v 0.691130 0.285367 1.333250
v 0.684232 0.288225 1.288435
v 0.684282 0.288268 1.266725
v 0.681583 0.290874 1.297769
v 0.678725 0.297772 1.376961
v 0.678725 0.297772 1.296791
v 0.681566 0.290925 1.276190
v 0.678725 0.293724 1.131907
v 0.678725 0.290202 1.139357
v 0.678725 0.298042 1.213691
v 0.678725 0.298547 1.138493
v 0.684232 0.288225 1.382439
v 0.691130 0.285367 1.381455
v 0.684675 0.282461 1.387910
v 0.681583 0.290874 1.383500
v 0.678725 0.288410 1.390291
v 0.678725 0.297772 1.386419
vt 0.290414 0.565052
vt 0.317844 0.076996
vt 0.298987 0.589607
vt 0.303857 0.109596
vt 0.015227 0.593766
vt 0.029214 0.561166
vt 0.042657 0.105710
vt 0.034084 0.081154
vt 0.328562 0.104653
vt 0.046522 0.249596
vt 0.008389 0.104930
vt 0.046525 0.270773
vt 0.046547 0.468411
vt 0.038902 0.270779
vt 0.328621 0.612865
vt 0.008448 0.613141
vt 0.046549 0.489585
vt 0.038899 0.249603
vt 0.038924 0.468417
vt 0.038926 0.489592
vt 0.346776 0.195458
vt 0.659061 0.686957
vt 0.347425 0.690116
vt 0.658411 0.192299
vt 0.682675 0.491198
vt 0.697110 0.646623
vt 0.681829 0.688307
vt 0.695344 0.726997
vt 0.775329 0.729647
vt 0.777824 0.734692
vt 0.693276 0.731891
vt 0.717098 0.745012
vt 0.679864 0.706180
vt 0.718222 0.707699
vt 0.876463 0.713901
vt 0.877138 0.715821
vt 0.870087 0.713690
vt 0.885032 0.705037
vt 0.878066 0.685796
vt 0.878556 0.652160
vt 0.895898 0.692365
vt 0.852058 0.746403
vt 0.852075 0.746445
vt 0.852065 0.746444
vt 0.717305 0.745020
vt 0.679672 0.743529
vt 0.711441 0.680242
vt 0.713907 0.682225
vt 0.799449 0.709680
vt 0.805924 0.711455
vt 0.709678 0.691067
vt 0.676469 0.711121
vt 0.717905 0.743103
vt 0.676377 0.742147
vt 0.757869 0.724880
vt 0.733910 0.730197
vt 0.733928 0.724329
vt 0.896619 0.499343
vt 0.896743 0.688396
vt 0.811330 0.689896
vt 0.872064 0.689590
vt 0.873551 0.694337
vt 0.818163 0.694617
vt 0.878550 0.643370
vt 0.878456 0.499435
vt 0.907212 0.747462
vt 0.865451 0.715471
vt 0.907304 0.716435
vt 0.697095 0.701990
vt 0.705900 0.677443
vt 0.706269 0.695923
vt 0.701730 0.708579
vt 0.814833 0.711861
vt 0.832213 0.717114
vt 0.777340 0.716787
vt 0.756305 0.710428
vt 0.897456 0.498313
vt 0.877949 0.627167
vt 0.878505 0.497685
vt 0.877890 0.640770
vt 0.896616 0.694040
vt 0.807486 0.693731
vt 0.870854 0.695830
vt 0.872380 0.700843
vt 0.814590 0.698928
vt 0.889165 0.734401
vt 0.791158 0.735237
vt 0.787957 0.735235
vt 0.886218 0.733215
vt 0.891331 0.734043
vt 0.903768 0.752402
vt 0.870888 0.713743
vt 0.903960 0.715052
vt 0.762445 0.731842
vt 0.789627 0.724838
vt 0.821187 0.726741
vt 0.794005 0.733744
vt 0.762007 0.731747
vt 0.789648 0.725613
vt 0.821674 0.726835
vt 0.794033 0.732969
vt 0.700413 0.714242
vt 0.702133 0.709578
vt 0.719671 0.714880
vt 0.713130 0.744978
vt 0.728816 0.714981
vt 0.727502 0.732695
vt 0.884786 0.712850
vt 0.880617 0.700990
vt 0.880986 0.682091
vt 0.889820 0.707221
vt 0.855142 0.738275
vt 0.855203 0.726417
vt 0.860941 0.722470
vt 0.860840 0.742192
vt 0.784789 0.718890
vt 0.734958 0.717743
vt 0.735731 0.715223
vt 0.782873 0.716308
vt 0.690769 0.500382
vt 0.709022 0.637426
vt 0.690892 0.687972
vt 0.709013 0.624388
vt 0.708932 0.500290
vt 0.689897 0.726926
vt 0.689897 0.726926
vt 0.689897 0.726926
vt 0.854820 0.736121
vt 0.854850 0.726172
vt 0.858979 0.722842
vt 0.858930 0.739282
vt 0.825812 0.733702
vt 0.849771 0.728385
vt 0.849753 0.734253
vt 0.698807 0.726009
vt 0.698807 0.726009
vt 0.698807 0.726009
vt 0.731974 0.715106
vt 0.729164 0.708132
vt 0.730870 0.708200
vt 0.870696 0.751093
vt 0.782552 0.713093
vt 0.762365 0.707769
vt 0.818457 0.707001
vt 0.835137 0.711400
vt 0.708824 0.713469
vt 0.710450 0.708937
vt 0.727281 0.713376
vt 0.877525 0.706702
vt 0.878181 0.708517
vt 0.871414 0.706732
vt 0.704133 0.697052
vt 0.703449 0.690648
vt 0.707493 0.689470
vt 0.795234 0.714341
vt 0.802009 0.716500
vt 0.825553 0.734996
vt 0.848643 0.729047
vt 0.848608 0.735908
vt 0.724702 0.735740
vt 0.724751 0.719301
vt 0.728860 0.722462
vt 0.728831 0.732411
vt 0.793897 0.730136
vt 0.789399 0.719931
vt 0.886117 0.726384
vt 0.889245 0.730190
vt 0.888393 0.736619
vt 0.758078 0.723587
vt 0.734988 0.729536
vt 0.735023 0.722674
vt 0.717998 0.712077
vt 0.697142 0.639034
vt 0.701627 0.491825
vt 0.865390 0.746499
vt 0.693894 0.713452
vt 0.699240 0.721773
vt 0.696173 0.721672
vt 0.694292 0.721609
vt 0.848723 0.740839
vt 0.849742 0.738125
vt 0.851497 0.736045
vt 0.851491 0.738165
vt 0.689904 0.699806
vt 0.689123 0.714010
vt 0.684387 0.707046
vt 0.684563 0.695602
vt 0.703599 0.702095
vt 0.701698 0.701520
vt 0.703412 0.701562
vt 0.697831 0.681052
vt 0.699888 0.654036
vt 0.701361 0.679067
vt 0.731227 0.732565
vt 0.735201 0.734171
vt 0.762232 0.727207
vt 0.733645 0.734572
vt 0.825529 0.739656
vt 0.804096 0.738808
vt 0.794091 0.738412
vt 0.800297 0.703934
vt 0.815282 0.704396
vt 0.871045 0.721253
vt 0.784686 0.744059
vt 0.731353 0.738505
vt 0.780371 0.730684
vt 0.784490 0.739015
vt 0.718498 0.722411
vt 0.777243 0.724357
vt 0.781938 0.733853
vt 0.833425 0.717155
vt 0.878095 0.723384
vt 0.881970 0.720887
vt 0.883413 0.724992
vt 0.894023 0.703129
vt 0.894218 0.712909
vt 0.890087 0.717528
vt 0.733136 0.734518
vt 0.732148 0.734481
vt 0.734091 0.734049
vt 0.869314 0.690426
vt 0.872038 0.690516
vt 0.873741 0.696108
vt 0.865409 0.750883
vt 0.859280 0.746670
vt 0.854744 0.743551
vt 0.873762 0.696175
vt 0.876858 0.706344
vt 0.875224 0.706290
vt 0.852645 0.726121
vt 0.849590 0.724533
vt 0.821855 0.730687
vt 0.850696 0.724287
vt 0.789654 0.723677
vt 0.757880 0.721009
vt 0.785923 0.716823
vt 0.789086 0.721087
vt 0.748897 0.712788
vt 0.783520 0.713585
vt 0.787126 0.718446
vt 0.879134 0.715729
vt 0.884238 0.717075
vt 0.884238 0.717075
vt 0.857451 0.719329
vt 0.862324 0.715399
vt 0.706827 0.710063
vt 0.702992 0.720753
vt 0.698004 0.713660
vt 0.733939 0.720458
vt 0.732190 0.720417
vt 0.733548 0.715987
vt 0.698004 0.713660
vt 0.693432 0.707160
vt 0.693344 0.696752
vt 0.709032 0.653016
vt 0.709211 0.662003
vt 0.709536 0.678282
vt 0.850576 0.729124
vt 0.850582 0.727905
vt 0.850586 0.727079
vt 0.758291 0.728222
vt 0.779837 0.722671
vt 0.789908 0.720193
vt 0.870191 0.699484
vt 0.818523 0.699745
vt 0.804401 0.689987
vt 0.709839 0.693419
vt 0.709995 0.701232
vt 0.708452 0.705531
vt 0.734593 0.714699
vt 0.735047 0.718013
vt 0.733115 0.717937
vt 0.876636 0.695511
vt 0.876302 0.699453
vt 0.693264 0.705989
vt 0.689123 0.714010
vt 0.856526 0.742038
vt 0.856526 0.742038
vt 0.698044 0.689675
vt 0.701515 0.689350
vt 0.730841 0.736236
vt 0.724655 0.740492
vt 0.793724 0.738390
vt 0.733910 0.734783
vt 0.800255 0.693549
vt 0.793052 0.688278
vt 0.793477 0.736820
vt 0.784946 0.724403
vt 0.730616 0.735716
vt 0.726230 0.739253
vt 0.854680 0.743508
vt 0.877256 0.685960
vt 0.877260 0.685750
vt 0.853065 0.722866
vt 0.790204 0.721762
vt 0.850545 0.724064
vt 0.789877 0.720114
vt 0.890598 0.709679
vt 0.733548 0.715987
vt 0.727155 0.716545
vt 0.727155 0.716545
vt 0.850603 0.723852
vt 0.856093 0.720076
vt 0.797473 0.685200
vt 0.712131 0.701202
vt 0.804490 0.699937
vt 0.873297 0.684847
vt 0.848731 0.738102
vt 0.798900 0.736954
vt 0.734576 0.717995
vt 0.779536 0.719775
vt 0.737547 0.712527
vt 0.836820 0.689349
vn 0.5773 -0.5774 0.5774
vn 0.5773 0.5774 -0.5774
vn 0.5773 0.5774 0.5773
vn 0.5774 -0.5774 -0.5774
vn -0.5773 0.5774 0.5774
vn -0.5774 -0.5774 0.5774
vn -0.5773 -0.5774 -0.5774
vn -0.5774 0.5774 -0.5774
vn 0.3015 0.9045 0.3015
vn 0.2842 0.9118 -0.2965
vn -0.2879 0.9098 -0.2988
vn 0.3015 0.9045 -0.3015
vn -0.3015 0.9045 0.3015
vn -0.3015 0.9045 -0.3015
vn 0.8888 -0.2186 -0.4028
vn 0.6668 0.2437 0.7043
vn 0.8323 0.5542 0.0127
vn 0.8316 0.5554 -0.0004
vn 0.5575 0.8302 -0.0013
vn 0.5455 0.8336 0.0868
vn -0.7477 -0.1848 -0.6378
vn 0.9890 -0.1407 0.0455
vn 0.9860 0.1665 -0.0017
vn 0.9808 -0.1951 0.0000
vn -0.9839 0.1788 0.0017
vn -0.9361 -0.1766 -0.3041
vn -0.6847 0.2544 0.6830
vn 0.5110 -0.5173 0.6865
vn 0.5904 -0.2664 0.7618
vn 0.8230 -0.3053 0.4791
vn -0.6253 -0.5055 0.5945
vn -0.6026 -0.7354 0.3100
vn -0.3946 -0.9188 0.0071
vn -0.8446 -0.5354 0.0068
vn -0.8853 -0.4628 0.0455
vn 0.6589 0.2494 -0.7096
vn -0.1951 0.9808 0.0000
vn 0.1634 0.9748 -0.1517
vn -0.1886 0.9620 -0.1973
vn -0.5562 -0.8310 -0.0013
vn -0.6071 -0.7370 -0.2969
vn -0.8515 -0.4642 -0.2438
vn -0.8314 -0.5557 -0.0002
vn -0.9509 0.2735 -0.1452
vn -0.9710 -0.1121 0.2113
vn -0.9973 -0.0679 0.0274
vn -0.9808 0.1946 -0.0134
vn 0.9820 -0.1888 -0.0007
vn 0.9814 0.1921 -0.0019
vn 0.9808 0.1951 -0.0004
vn 0.9912 -0.1319 -0.0063
vn 0.7556 -0.0809 0.6500
vn 0.5562 -0.8310 0.0013
vn 0.5793 -0.7780 0.2432
vn 0.8715 -0.4653 0.1549
vn 0.8314 -0.5557 0.0002
vn -0.5291 0.8370 0.1396
vn -0.5669 0.8238 0.0037
vn -0.8357 0.5492 0.0034
vn -0.8498 0.5271 0.0050
vn -0.7371 0.6307 0.2427
vn -0.7540 -0.0769 0.6523
vn 0.1224 -0.9925 -0.0068
vn -0.2277 -0.9737 -0.0048
vn -0.2663 -0.9638 -0.0093
vn 0.1638 -0.9865 -0.0032
vn 0.1989 0.9800 -0.0022
vn -0.1973 0.9803 0.0008
vn -0.1989 0.9800 0.0022
vn 0.1973 0.9803 -0.0008
vn 0.9806 0.1961 0.0026
vn 1.0000 0.0000 0.0000
vn 0.9808 0.1951 -0.0000
vn -0.2295 -0.7171 -0.6580
vn 0.2284 -0.9181 -0.3240
vn 0.9825 0.1862 -0.0010
vn 0.9885 -0.0959 0.1165
vn 0.9493 -0.0652 0.3076
vn 0.9573 0.2677 -0.1092
vn 0.1703 -0.7278 0.6643
vn -0.2499 -0.6016 0.7587
vn -0.2083 -0.3058 0.9290
vn 0.2359 -0.3541 0.9050
vn -0.5575 0.8302 0.0013
vn -0.5455 0.8336 -0.0868
vn -0.8323 0.5542 -0.0127
vn -0.8316 0.5554 0.0004
vn -0.6607 0.2345 -0.7131
vn 0.8335 0.4475 0.3242
vn 0.4758 0.6805 0.5572
vn 0.6503 0.6505 0.3923
vn 0.1944 0.8206 0.5375
vn -0.1898 0.8367 0.5138
vn -0.2269 0.6101 0.7591
vn 0.2941 0.5917 0.7506
vn 0.1951 0.9808 -0.0000
vn -0.1634 0.9748 0.1517
vn 0.1886 0.9620 0.1973
vn -0.8511 0.4570 0.2584
vn -0.5671 0.8110 0.1435
vn -0.6352 0.6532 -0.4121
vn -0.9808 0.1951 0.0004
vn -0.9913 -0.1317 0.0063
vn -0.9820 -0.1887 0.0007
vn -0.9814 0.1920 0.0019
vn -0.9806 0.1961 -0.0026
vn -1.0000 0.0000 0.0000
vn -0.9808 0.1951 0.0000
vn -0.9933 -0.0985 -0.0600
vn -0.9858 0.1677 0.0025
vn -0.9808 -0.1951 -0.0000
vn 0.8993 -0.4358 0.0372
vn 0.6872 -0.7183 -0.1089
vn 0.3812 -0.9229 -0.0544
vn 0.5067 -0.8621 -0.0085
vn 0.8576 -0.5143 -0.0057
vn 0.1951 -0.9808 0.0000
vn -0.4515 -0.8741 0.1791
vn 0.1952 -0.9530 0.2317
vn 0.2853 0.5998 -0.7476
vn -0.2871 0.5845 -0.7589
vn -0.1944 0.8206 -0.5375
vn 0.1898 0.8367 -0.5138
vn 0.5669 0.8238 -0.0037
vn 0.8357 0.5492 -0.0034
vn 0.8478 0.5302 -0.0043
vn 0.7447 0.6235 -0.2381
vn 0.5291 0.8370 -0.1396
vn -0.1951 -0.9808 -0.0000
vn 0.0444 -0.9978 -0.0491
vn -0.1076 -0.9809 -0.1619
vn 0.9808 0.1946 0.0134
vn 0.9602 0.2552 0.1138
vn 0.9853 -0.1637 0.0492
vn 0.9778 -0.2047 -0.0446
usemtl Default_OBJ
s 1
f 1/1/1 2/2/2 3/3/3
f 2/2/2 1/1/1 4/4/4
f 5/5/5 1/1/1 3/3/3
f 1/1/1 5/5/5 6/6/6
f 7/7/7 2/2/2 4/4/4
f 2/2/2 7/7/7 8/8/8
f 7/7/7 5/5/5 8/8/8
f 5/5/5 7/7/7 6/6/6
f 3/9/3 9/10/9 5/11/5
f 3/9/3 10/12/10 9/10/9
f 10/12/10 11/13/9 12/14/11
f 2/15/2 10/12/10 3/9/3
f 10/12/10 2/15/2 11/13/9
f 8/16/8 13/17/12 2/15/2
f 11/13/9 2/15/2 13/17/12
f 14/18/13 5/11/5 9/10/9
f 12/14/11 5/11/5 14/18/13
f 15/19/13 12/14/11 11/13/9
f 8/16/8 12/14/11 15/19/13
f 8/16/8 15/19/13 16/20/14
f 12/14/11 8/16/8 5/11/5
f 13/17/12 8/16/8 16/20/14
f 7/21/7 1/22/1 6/23/6
f 1/22/1 7/21/7 4/24/4
f 9/25/9 35/26/15 29/27/16
f 20/28/17 53/29/18 51/30/19 22/31/20
f 35/32/15 12/33/11 17/34/21
f 80/35/22 58/36/23 48/37/24
f 95/38/25 136/39/26 17/40/21 99/41/27
f 72/42/28 76/43/29 78/44/30
f 12/33/11 35/45/15 10/46/10
f 115/47/31 119/48/32 123/49/33 127/50/34 129/51/35
f 16/52/14 62/53/36 13/54/12
f 86/55/37 68/56/38 105/57/39
f 17/40/21 14/58/13 99/59/27
f 122/60/40 132/61/41 135/62/42 124/63/43
f 14/58/13 17/64/21 12/65/11
f 9/66/9 99/67/27 14/68/13
f 108/69/44 112/70/45 128/71/46 100/72/47
f 45/73/48 57/74/49 55/75/50 30/76/51
f 13/77/12 74/78/52 11/79/9
f 74/80/52 13/77/12 62/81/36
f 43/82/53 69/83/54 77/84/55 47/85/56
f 84/86/57 88/87/58 92/88/59 96/89/60 98/90/61
f 11/91/9 113/92/62 15/93/13
f 39/94/63 120/95/64 118/96/65 41/97/66
f 65/98/67 85/99/68 83/100/69 49/101/70
f 19/102/71 31/103/72 54/104/73
f 35/105/15 17/34/21 134/106/74 37/107/75
f 59/108/76 79/109/77 75/110/78 61/111/79
f 71/112/80 116/113/81 114/114/82 73/115/83
f 87/116/84 104/117/85 102/118/86 89/119/87
f 16/120/14 113/121/62 111/122/88
f 113/123/62 16/120/14 15/124/13
f 21/125/89 25/126/90 27/127/91
f 24/128/92 81/129/93 97/130/94 28/131/95
f 50/132/96 82/133/97 23/134/98
f 103/135/99 107/136/100 109/137/101
f 134/138/74 17/139/21 136/140/26
f 113/92/62 11/91/9 74/141/52
f 91/142/102 130/143/103 126/144/104 93/145/105
f 101/146/106 131/147/107 90/148/108
f 137/149/109 94/150/110 125/151/111
f 33/152/112 36/153/113 40/154/114 44/155/115 46/156/116
f 42/157/117 117/158/118 70/159/119
f 63/160/120 110/161/121 106/162/122 67/163/123
f 52/164/124 56/165/125 60/166/126 64/167/127 66/168/128
f 121/169/129 38/170/130 133/171/131
f 62/53/36 16/52/14 111/172/88
f 35/173/15 9/25/9 10/174/10
f 99/67/27 9/66/9 29/175/16
f 18/176/132 19/177/71 20/178/17 21/179/89
f 22/180/20 23/181/98 24/182/92 25/183/90
f 26/184/133 27/185/91 28/186/95 29/187/16
f 30/76/51 31/188/72 32/189/134 33/190/112
f 34/191/135 35/192/15 36/193/113
f 37/194/75 38/195/130 39/196/63 40/197/114
f 41/97/66 42/198/117 43/199/53 44/200/115
f 45/73/48 46/201/116 47/202/56 48/203/24
f 49/204/70 50/205/96 51/206/19 52/207/124
f 53/29/18 54/208/73 55/209/50 56/210/125
f 57/211/49 58/212/23 59/213/76 60/214/126
f 61/111/79 62/215/36 63/216/120 64/217/127
f 65/98/67 66/218/128 67/219/123 68/220/38
f 69/83/54 70/221/119 71/222/80 72/223/28
f 73/115/83 74/224/52 75/225/78 76/226/29
f 77/84/55 78/227/30 79/228/77 80/229/22
f 81/230/93 82/231/97 83/232/69 84/233/57
f 85/234/68 86/235/37 87/236/84 88/237/58
f 89/119/87 90/238/108 91/239/102 92/240/59
f 93/145/105 94/241/110 95/242/25 96/243/60
f 97/130/94 98/244/61 99/245/27
f 100/72/47 101/246/106 102/247/86 103/248/99
f 104/117/85 105/249/39 106/250/122 107/251/100
f 108/69/44 109/252/101 110/253/121 111/254/88
f 112/70/45 113/255/62 114/256/82 115/257/31
f 116/113/81 117/258/118 118/259/65 119/260/32
f 120/95/64 121/261/129 122/262/40 123/263/33
f 124/63/43 125/264/111 126/265/104 127/266/34
f 128/71/46 129/267/35 130/268/103 131/269/107
f 132/270/41 133/271/131 134/272/74
f 135/62/42 136/273/26 137/274/109
f 26/184/133 18/275/132 21/276/89 27/185/91
f 20/28/17 22/31/20 25/126/90 21/125/89
f 24/128/92 28/131/95 27/277/91 25/278/90
f 45/73/48 30/76/51 33/190/112 46/201/116
f 32/279/134 34/191/135 36/193/113 33/280/112
f 35/105/15 37/107/75 40/281/114 36/282/113
f 39/94/63 41/97/66 44/283/115 40/284/114
f 43/82/53 47/85/56 46/285/116 44/286/115
f 65/98/67 49/101/70 52/287/124 66/218/128
f 51/30/19 53/29/18 56/210/125 52/207/124
f 55/75/50 57/74/49 60/214/126 56/288/125
f 59/108/76 61/111/79 64/217/127 60/214/126
f 63/160/120 67/163/123 66/289/128 64/290/127
f 77/84/55 69/83/54 72/223/28 78/227/30
f 71/112/80 73/115/83 76/226/29 72/291/28
f 75/110/78 79/109/77 78/292/30 76/293/29
f 97/130/94 81/129/93 84/294/57 98/244/61
f 83/100/69 85/99/68 88/295/58 84/296/57
f 87/116/84 89/119/87 92/240/59 88/237/58
f 91/142/102 93/145/105 96/243/60 92/297/59
f 95/38/25 99/41/27 98/298/61 96/243/60
f 108/69/44 100/72/47 103/248/99 109/252/101
f 102/118/86 104/117/85 107/251/100 103/299/99
f 106/162/122 110/161/121 109/300/101 107/301/100
f 128/71/46 112/70/45 115/257/31 129/267/35
f 114/114/82 116/113/81 119/302/32 115/303/31
f 118/96/65 120/95/64 123/263/33 119/302/32
f 122/60/40 124/63/43 127/266/34 123/304/33
f 126/144/104 130/143/103 129/305/35 127/306/34
f 135/62/42 132/61/41 134/307/74 136/273/26
f 29/27/16 35/26/15 34/191/135 26/184/133
f 31/103/72 19/102/71 18/275/132 32/279/134
f 19/102/71 54/104/73 53/29/18 20/28/17
f 50/132/96 23/134/98 22/308/20 51/309/19
f 23/134/98 82/133/97 81/129/93 24/128/92
f 99/67/27 29/175/16 28/131/95 97/130/94
f 111/122/88 113/121/62 112/70/45 108/69/44
f 131/147/107 101/146/106 100/72/47 128/71/46
f 121/169/129 133/171/131 132/310/41 122/311/40
f 137/149/109 125/151/111 124/63/43 135/62/42
f 70/159/119 117/158/118 116/113/81 71/112/80
f 113/92/62 74/141/52 73/115/83 114/114/82
f 86/55/37 105/57/39 104/117/85 87/116/84
f 101/312/106 90/238/108 89/119/87 102/118/86
f 90/148/108 131/147/107 130/143/103 91/142/102
f 125/151/111 94/150/110 93/145/105 126/144/104
f 94/150/110 137/149/109 136/39/26 95/38/25
f 48/37/24 58/36/23 57/74/49 45/73/48
f 54/104/73 31/103/72 30/76/51 55/75/50
f 42/313/117 70/221/119 69/83/54 43/82/53
f 80/35/22 48/37/24 47/85/56 77/84/55
f 58/36/23 80/35/22 79/109/77 59/108/76
f 74/80/52 62/81/36 61/111/79 75/110/78
f 68/56/38 86/55/37 85/99/68 65/98/67
f 82/133/97 50/132/96 49/101/70 83/100/69
f 38/170/130 121/169/129 120/95/64 39/94/63
f 117/158/118 42/157/117 41/97/66 118/96/65
f 62/53/36 111/172/88 110/161/121 63/160/120
f 105/57/39 68/56/38 67/163/123 106/162/122
f 133/171/131 38/170/130 37/107/75 134/106/74
f 26/184/133 34/191/135 32/279/134 18/275/132
