# Blender v2.90.0 OBJ File: ''
# www.blender.org
mtllib bottom_right_table.mtl
o bottom_right_table
v 0.700000 -0.000000 1.040000
v 0.700000 0.020000 0.740000
v 0.700000 0.020000 1.040000
v 0.700000 -0.000000 0.740000
v 0.020000 0.020000 1.040000
v 0.690000 0.400000 1.040000
v 0.690000 0.020000 1.040000
v 0.020000 0.400000 1.040000
v 0.709999 0.020000 1.040000
v 0.709999 -0.000000 1.040000
v 0.000000 -0.000000 0.740000
v 0.709999 0.400000 0.740000
v 0.709999 0.020000 0.740000
v 0.000000 0.400000 0.740000
v 0.000000 0.400000 1.060000
v 0.000000 -0.000000 1.060000
v 0.690000 0.020000 0.759999
v 0.020000 0.020000 0.759999
v 0.709999 -0.000000 1.060000
v 0.709999 0.400000 1.060000
v 0.690000 0.400000 0.759999
v 0.020000 0.400000 0.759999
vt 0.000000 0.000000
vt 0.000000 0.000000
vt 0.000000 0.000000
vt 0.310223 0.903657
vt 0.745496 0.938009
vt 0.310439 0.942329
vt 0.000087 0.756174
vt 0.999913 0.000087
vt 0.999913 0.756175
vt 0.000087 0.000087
vt 0.740632 0.056518
vt 0.740632 0.056518
vt 0.740632 0.056518
vt 0.000000 0.000000
vt 0.125683 0.324471
vt 0.865008 0.331078
vt 0.125541 0.352636
vt 0.677674 0.220310
vt 0.745279 0.899128
vt 0.665733 0.235226
vt 0.862177 0.894373
vt 0.112291 0.887672
vt 0.782720 0.920325
vt 0.239216 0.022384
vt 0.779830 0.019301
vt 0.242107 0.923407
vt 0.000075 0.000075
vt 0.999925 0.557208
vt 0.000075 0.557208
vt 0.999925 0.000075
vt 0.266900 0.103453
vt 0.857574 0.303893
vt 0.118104 0.325803
vt 0.107676 0.297547
vt 0.855429 0.754536
vt 0.116093 0.748280
vt 0.740632 0.056518
vt 0.239776 0.904147
vt 0.235070 0.061642
vt 0.898934 0.142721
vt 0.144770 0.695821
vt 0.149071 0.132542
vt 0.894634 0.705999
vt 0.338046 0.999942
vt 0.316922 0.971777
vt 0.338046 0.000058
vt 0.021182 0.971777
vt 0.000058 0.999941
vt 0.021181 0.028224
vt 0.316922 0.028224
vt 0.000058 0.000059
vt 0.000074 0.000075
vt 0.552626 0.999925
vt 0.000074 0.999926
vt 0.552625 0.000074
vt 0.552626 0.999926
vt 0.000074 0.000075
vt 0.552626 0.000074
vt 0.000074 0.999926
vt 0.000065 0.000065
vt 0.425383 0.999935
vt 0.000065 0.999935
vt 0.425383 0.000065
vn 0.3015 -0.9045 -0.3015
vn 0.3015 -0.3015 -0.9045
vn 0.5774 -0.5774 -0.5774
vn 0.5774 0.5774 -0.5774
vn -0.3015 0.9045 -0.3015
vn -0.5774 0.5774 -0.5774
vn 0.3015 0.9045 -0.3015
vn 0.9045 -0.3015 -0.3015
vn -0.5774 -0.5774 -0.5774
vn 0.5774 0.5774 -0.5773
vn -0.5774 0.5774 0.5774
vn -0.5774 -0.5774 0.5774
vn 0.5774 0.5774 0.5774
vn 0.5774 -0.5774 0.5774
vn -0.3015 0.9045 0.3015
vn 0.3015 0.9045 0.3015
usemtl Default_OBJ
s 1
f 1/1/1 2/2/2 3/3/3
f 2/4/2 1/5/1 4/6/3
f 5/7/4 6/8/5 7/9/6
f 6/8/5 5/7/4 8/10/7
f 1/11/1 9/12/8 10/13/3
f 9/14/8 1/1/1 3/3/3
f 4/15/3 11/16/9 2/17/2
f 2/18/2 12/19/10 13/20/3
f 14/21/6 2/17/2 11/16/9
f 2/17/2 14/21/6 12/22/10
f 11/23/9 15/24/11 14/25/6
f 15/24/11 11/23/9 16/26/12
f 17/27/11 5/28/4 7/29/6
f 5/28/4 17/27/11 18/30/13
f 2/2/2 9/14/8 3/3/3
f 9/31/8 2/18/2 13/20/3
f 16/32/12 1/33/1 19/34/14
f 11/35/9 1/33/1 16/32/12
f 1/33/1 11/35/9 4/36/3
f 19/37/14 1/11/1 10/13/3
f 20/38/13 9/31/8 12/19/10
f 19/39/14 9/31/8 20/38/13
f 9/12/8 19/37/14 10/13/3
f 12/19/10 9/31/8 13/20/3
f 15/40/11 19/41/14 20/42/13
f 19/41/14 15/40/11 16/43/12
f 20/44/13 6/45/5 15/46/11
f 20/44/13 21/47/15 6/45/5
f 21/47/15 12/48/10 22/49/16
f 12/48/10 21/47/15 20/44/13
f 8/50/7 15/46/11 6/45/5
f 22/49/16 15/46/11 8/50/7
f 22/49/16 14/51/6 15/46/11
f 14/51/6 22/49/16 12/48/10
f 5/52/4 22/53/16 8/54/7
f 22/53/16 5/52/4 18/55/13
f 17/56/11 6/57/5 21/58/15
f 6/57/5 17/56/11 7/59/6
f 22/60/16 17/61/11 21/62/15
f 17/61/11 22/60/16 18/63/13
