# Blender v2.90.0 OBJ File: ''
# www.blender.org
mtllib bottom_left_table.mtl
o bottom_left_table
v 1.400000 -0.000000 1.060000
v 1.400000 0.400000 0.740000
v 1.400000 0.400000 1.060000
v 1.400000 -0.000000 0.740000
v 0.730000 0.400000 0.759999
v 1.380000 0.020000 0.759999
v 1.380000 0.400000 0.759999
v 0.730000 0.020000 0.759999
v 0.709999 -0.000000 0.740000
v 0.709999 0.400000 0.740000
v 0.709999 0.400000 1.060000
v 0.709999 -0.000000 1.060000
v 1.380000 0.400000 1.040000
v 0.730000 0.400000 1.040000
v 0.730000 0.020000 1.040000
v 1.380000 0.020000 1.040000
vt 0.000077 0.000077
vt 0.599984 0.999923
vt 0.000077 0.999922
vt 0.599984 0.000078
vt 0.863512 0.233148
vt 0.111475 0.812787
vt 0.113620 0.228256
vt 0.861367 0.817679
vt 0.434791 0.999934
vt 0.000066 0.000066
vt 0.434791 0.000066
vt 0.000066 0.999934
vt 0.000077 0.000077
vt 0.599984 0.999923
vt 0.599984 0.000078
vt 0.053838 0.752195
vt 0.075403 0.722985
vt 0.803727 0.744313
vt 0.073004 0.317249
vt 0.051097 0.288497
vt 0.779419 0.309824
vt 0.781818 0.715560
vt 0.800985 0.280615
vt 0.954494 0.769412
vt 0.092271 0.230588
vt 0.956115 0.235248
vt 0.090650 0.764752
vt 0.836747 0.084081
vt 0.099835 0.843736
vt 0.087059 0.107198
vt 0.849523 0.820619
vt 0.999912 0.000088
vt 0.000088 0.779438
vt 0.000088 0.000088
vt 0.999912 0.779438
vt 0.802164 0.663282
vt 0.052520 0.231725
vt 0.802434 0.232560
vt 0.052250 0.662446
vt 0.552626 0.999926
vt 0.000074 0.000075
vt 0.552626 0.000074
vt 0.000074 0.999926
vt 0.999912 0.000088
vt 0.000088 0.772898
vt 0.000088 0.000088
vt 0.999912 0.772898
vn 0.5774 -0.5774 0.5774
vn 0.5774 0.5774 -0.5773
vn 0.5774 0.5774 0.5774
vn 0.5774 -0.5774 -0.5774
vn 0.3015 0.9045 0.3015
vn -0.5774 0.5774 0.5774
vn -0.3015 0.9045 0.3015
vn -0.5774 -0.5774 -0.5774
vn -0.5773 0.5773 -0.5774
vn -0.5774 -0.5774 0.5774
vn -0.3015 0.9045 -0.3015
vn 0.3015 0.9045 -0.3015
vn 0.5774 0.5774 -0.5774
vn -0.5774 0.5774 -0.5774
usemtl Default_OBJ
s 1
f 1/1/1 2/2/2 3/3/3
f 2/2/2 1/1/1 4/4/4
f 5/5/5 6/6/6 7/7/7
f 6/6/6 5/5/5 8/8/3
f 9/9/8 2/10/2 4/11/4
f 2/10/2 9/9/8 10/12/9
f 9/13/8 11/14/6 10/12/9
f 11/14/6 9/13/8 12/15/10
f 3/16/3 13/17/11 11/18/6
f 3/16/3 7/19/7 13/17/11
f 7/19/7 2/20/2 5/21/5
f 2/20/2 7/19/7 3/16/3
f 14/22/12 11/18/6 13/17/11
f 5/21/5 11/18/6 14/22/12
f 5/21/5 10/23/9 11/18/6
f 10/23/9 5/21/5 2/20/2
f 9/24/8 1/25/1 12/26/10
f 1/25/1 9/24/8 4/27/4
f 15/28/13 5/29/5 14/30/12
f 5/29/5 15/28/13 8/31/3
f 15/32/13 13/33/11 16/34/14
f 13/33/11 15/32/13 14/35/12
f 6/36/6 15/37/13 16/38/14
f 15/37/13 6/36/6 8/39/3
f 6/40/6 13/41/11 7/42/7
f 13/41/11 6/40/6 16/43/14
f 11/44/6 1/45/1 3/46/3
f 1/45/1 11/44/6 12/47/10
