# Blender v2.90.0 OBJ File: ''
# www.blender.org
mtllib top_left_door.mtl
o top_left_door
v 0.754999 0.474999 1.250000
v 0.754999 0.459999 1.235000
v 0.754999 0.474999 1.130000
v 0.754999 0.419999 1.250000
v 0.754999 0.419999 1.235000
v 0.754999 0.459999 1.145000
v 0.754999 0.419999 1.130000
v 0.754999 0.419999 1.145000
v 0.740000 0.474999 1.250000
v 0.740000 0.419999 1.250000
v 0.740000 0.419999 1.235000
v 0.740000 0.459999 1.235000
v 0.740000 0.474999 1.130000
v 0.740000 0.459999 1.145000
v 0.740000 0.419999 1.130000
v 0.740000 0.419999 1.145000
v 1.400000 0.419999 1.340000
v 0.700000 0.419999 1.340000
v 1.400000 0.419999 1.040000
v 0.700000 0.419999 1.040000
v 1.400000 0.400000 1.340000
v 1.400000 0.400000 1.040000
v 0.700000 0.400000 1.340000
v 0.700000 0.400000 1.040000
vt 0.745497 0.351864
vt 0.746702 0.343197
vt 0.865064 0.347861
vt 0.713197 0.327768
vt 0.719957 0.327343
vt 0.862665 0.350407
vt 0.862611 0.345569
vt 0.859351 0.336977
vt 0.744455 0.347187
vt 0.702532 0.352722
vt 0.864098 0.633499
vt 0.827726 0.650191
vt 0.860425 0.674290
vt 0.828587 0.651012
vt 0.675660 0.628778
vt 0.683241 0.623037
vt 0.830589 0.645640
vt 0.684378 0.614062
vt 0.689164 0.603129
vt 0.882510 0.645869
vt 0.684599 0.621731
vt 0.332592 0.159413
vt 0.029298 0.276968
vt 0.003435 0.159408
vt 0.029298 0.296562
vt 0.220385 0.398974
vt 0.048362 0.363567
vt 0.224058 0.358183
vt 0.029299 0.414122
vt 0.332592 0.551265
vt 0.003436 0.551277
vt 0.029298 0.433717
vt 0.022245 0.276968
vt 0.022245 0.296562
vt 0.049124 0.327813
vt 0.022245 0.414123
vt 0.022245 0.433717
vt 0.688401 0.638883
vt 0.681580 0.624472
vt 0.684561 0.627717
vt 0.869782 0.343732
vt 0.311462 0.475501
vt 0.021668 0.421839
vt 0.311462 0.421837
vt 0.021668 0.475502
vt 0.029053 0.273987
vt 0.320591 0.268708
vt 0.320408 0.291830
vt 0.029236 0.250865
vt 0.011151 0.405195
vt 0.321694 0.380151
vt 0.321698 0.404797
vt 0.011147 0.380550
vt 0.329099 0.407895
vt 0.017470 0.340121
vt 0.329339 0.350144
vt 0.017230 0.397872
vt 0.345874 0.259140
vt 0.651786 0.628867
vt 0.345151 0.624182
vt 0.652509 0.263825
vn 0.5774 0.5774 0.5774
vn 0.9045 -0.3015 -0.3015
vn 0.5774 0.5774 -0.5774
vn 0.3015 0.9045 0.3015
vn 0.3015 0.9045 -0.3015
vn 0.9045 -0.3015 0.3015
vn -0.5774 0.5774 0.5773
vn -0.3015 0.9045 0.3015
vn -0.3015 0.9045 -0.3015
vn -0.9045 -0.3015 -0.3015
vn -0.5773 0.5774 -0.5773
vn -0.9045 -0.3015 0.3015
vn 0.5773 0.5774 0.5773
vn -0.5774 0.5774 0.5774
vn 0.5774 0.5774 -0.5773
vn -0.5774 0.5774 -0.5774
vn 0.5774 -0.5774 0.5774
vn 0.5774 -0.5774 -0.5774
vn -0.5774 -0.5774 0.5774
vn -0.5774 -0.5774 -0.5774
usemtl Default_OBJ
s 1
f 1/1/1 2/2/2 3/3/3
f 4/4/4 2/2/2 1/1/1
f 2/2/2 4/4/4 5/5/5
f 6/6/6 3/3/3 2/2/2
f 7/7/5 6/6/6 8/8/4
f 6/6/6 7/7/5 3/3/3
f 9/9/7 4/4/4 1/1/1
f 4/4/4 9/9/7 10/10/8
f 11/11/9 2/12/2 5/13/5
f 2/12/2 11/11/9 12/14/10
f 13/15/11 14/16/12 9/17/7
f 15/18/9 14/16/12 13/15/11
f 14/16/12 15/18/9 16/19/8
f 12/14/10 9/17/7 14/16/12
f 10/20/8 12/14/10 11/11/9
f 12/14/10 10/20/8 9/17/7
f 14/16/12 2/12/2 12/14/10
f 2/12/2 14/16/12 6/21/6
f 17/22/13 4/23/4 18/24/14
f 17/22/13 5/25/5 4/23/4
f 5/26/5 8/27/4 11/28/9
f 17/22/13 8/29/4 5/25/5
f 19/30/15 8/29/4 17/22/13
f 20/31/16 7/32/5 19/30/15
f 8/29/4 19/30/15 7/32/5
f 10/33/8 18/24/14 4/23/4
f 11/34/9 18/24/14 10/33/8
f 16/35/8 11/28/9 8/27/4
f 11/34/9 16/36/8 18/24/14
f 20/31/16 16/36/8 15/37/9
f 16/36/8 20/31/16 18/24/14
f 7/32/5 20/31/16 15/37/9
f 14/16/12 8/38/4 6/21/6
f 8/38/4 14/16/12 16/19/8
f 15/18/9 3/39/3 7/40/5
f 3/39/3 15/18/9 13/15/11
f 3/3/3 9/9/7 1/1/1
f 9/9/7 3/3/3 13/41/11
f 21/42/17 19/43/15 17/44/13
f 19/43/15 21/42/17 22/45/18
f 18/46/14 21/47/17 17/48/13
f 21/47/17 18/46/14 23/49/19
f 24/50/20 19/51/15 22/52/18
f 19/51/15 24/50/20 20/53/16
f 24/54/20 18/55/14 20/56/16
f 18/55/14 24/54/20 23/57/19
f 24/58/20 21/59/17 23/60/19
f 21/59/17 24/58/20 22/61/18
