# Blender v2.90.0 OBJ File: ''
# www.blender.org
mtllib top_left_table.mtl
o top_left_table
v 1.400000 -0.000000 1.360000
v 1.400000 0.400000 1.040000
v 1.400000 0.400000 1.360000
v 1.400000 -0.000000 1.040000
v 0.730000 0.400000 1.060000
v 1.380000 0.020000 1.060000
v 1.380000 0.400000 1.060000
v 0.730000 0.020000 1.060000
v 0.709999 -0.000000 1.040000
v 0.709999 0.400000 1.040000
v 0.709999 0.400000 1.360000
v 0.709999 -0.000000 1.360000
v 1.380000 0.400000 1.340000
v 0.730000 0.400000 1.340000
v 0.730000 0.020000 1.340000
v 1.380000 0.020000 1.340000
vt 0.728252 0.928810
vt 0.221241 0.090876
vt 0.725660 0.088112
vt 0.223833 0.931575
vt 0.825104 0.062390
vt 0.076060 0.648878
vt 0.075204 0.064341
vt 0.825959 0.646927
vt 0.116427 0.804779
vt 0.864723 0.221470
vt 0.866323 0.801099
vt 0.114827 0.225150
vt 0.679242 0.960609
vt 0.157055 0.091887
vt 0.678661 0.091267
vt 0.157637 0.961229
vt 0.945200 0.222933
vt 0.918963 0.257915
vt 0.040035 0.222933
vt 0.918963 0.747666
vt 0.945200 0.782648
vt 0.066273 0.747666
vt 0.066273 0.257915
vt 0.040035 0.782648
vt 0.358753 0.523138
vt 0.595708 0.000077
vt 0.472369 0.528165
vt 0.345048 0.219512
vt 0.999901 0.000099
vt 0.000099 0.982361
vt 0.000099 0.000099
vt 0.999901 0.982361
vt 0.858928 0.223609
vt 0.003269 0.890584
vt 0.003269 0.223609
vt 0.858928 0.890584
vt 0.846213 0.893711
vt 0.097059 0.460642
vt 0.846972 0.462992
vt 0.096300 0.891361
vt 0.943585 0.055790
vt 0.056416 0.926670
vt 0.056675 0.055320
vt 0.943325 0.927139
vt 0.999912 0.000088
vt 0.000088 0.772898
vt 0.000088 0.000088
vt 0.595708 0.999923
vn 0.5774 -0.5774 0.5774
vn 0.5774 0.5773 -0.5774
vn 0.5774 0.5774 0.5774
vn 0.5774 -0.5774 -0.5774
vn 0.3015 0.9045 0.3015
vn -0.5774 0.5774 0.5774
vn -0.3015 0.9045 0.3015
vn -0.5774 -0.5774 -0.5774
vn -0.5774 0.5774 -0.5774
vn -0.5774 -0.5774 0.5774
vn -0.3015 0.9045 -0.3015
vn 0.3015 0.9045 -0.3015
vn 0.5774 0.5774 -0.5774
usemtl Default_OBJ
s 1
f 1/1/1 2/2/2 3/3/3
f 2/2/2 1/1/1 4/4/4
f 5/5/5 6/6/6 7/7/7
f 6/6/6 5/5/5 8/8/3
f 9/9/8 2/10/2 4/11/4
f 2/10/2 9/9/8 10/12/9
f 9/13/8 11/14/6 10/15/9
f 11/14/6 9/13/8 12/16/10
f 3/17/3 13/18/11 11/19/6
f 3/17/3 7/20/7 13/18/11
f 7/20/7 2/21/2 5/22/5
f 2/21/2 7/20/7 3/17/3
f 14/23/12 11/19/6 13/18/11
f 5/22/5 11/19/6 14/23/12
f 5/22/5 10/24/9 11/19/6
f 10/24/9 5/22/5 2/21/2
f 9/25/8 1/26/1 12/27/10
f 1/26/1 9/25/8 4/28/4
f 15/29/13 5/30/5 14/31/12
f 5/30/5 15/29/13 8/32/3
f 15/33/13 13/34/11 16/35/9
f 13/34/11 15/33/13 14/36/12
f 6/37/6 15/38/13 16/39/9
f 15/38/13 6/37/6 8/40/3
f 6/41/6 13/42/11 7/43/7
f 13/42/11 6/41/6 16/44/9
f 11/45/6 1/46/1 3/47/3
f 1/26/1 11/48/6 12/27/10
