# Blender v2.83.3 OBJ File: ''
# www.blender.org
mtllib top_left_door.mtl
o top_left_door
v 0.455000 0.275000 1.015000
v 0.455000 0.259999 1.000000
v 0.455000 0.275000 0.895000
v 0.455000 0.219999 1.015000
v 0.455000 0.219999 1.000000
v 0.455000 0.259999 0.910000
v 0.455000 0.219999 0.895000
v 0.455000 0.219999 0.910000
v 0.440000 0.275000 1.015000
v 0.440000 0.219999 1.015000
v 0.440000 0.219999 1.000000
v 0.440000 0.259999 1.000000
v 0.440000 0.275000 0.895000
v 0.440000 0.259999 0.910000
v 0.440000 0.219999 0.895000
v 0.440000 0.219999 0.910000
v 0.799999 0.219999 1.060000
v 0.410000 0.219999 1.060000
v 0.799999 0.219999 0.860000
v 0.410000 0.219999 0.860000
v 0.799999 0.200000 1.060000
v 0.799999 0.200000 0.860000
v 0.410000 0.200000 1.060000
v 0.410000 0.200000 0.860000
vt 0.694776 0.691698
vt 0.718600 0.625516
vt 0.885367 0.691698
vt 0.694776 0.449043
vt 0.718600 0.449043
vt 0.861543 0.625516
vt 0.885367 0.449043
vt 0.861543 0.449043
vt 0.853122 0.668223
vt 0.907169 0.709682
vt 0.853075 0.709202
vt 0.907216 0.668702
vt 0.000000 0.000000
vt 0.000000 0.000000
vt 0.000000 0.000000
vt 0.000000 0.000000
vt 0.691106 0.780333
vt 0.716289 0.710296
vt 0.892684 0.780014
vt 0.691053 0.523689
vt 0.716251 0.523649
vt 0.867473 0.710057
vt 0.892632 0.523370
vt 0.867434 0.523410
vt 0.000000 0.000000
vt 0.000000 0.000000
vt 0.003601 0.575191
vt 0.295217 0.470993
vt 0.333179 0.576816
vt 0.295239 0.435780
vt 0.295374 0.224510
vt 0.307916 0.435843
vt 0.003898 0.105704
vt 0.333477 0.107326
vt 0.295397 0.189299
vt 0.307893 0.471055
vt 0.308050 0.224573
vt 0.308073 0.189362
vt 0.000000 0.000000
vt 0.000000 0.000000
vt 0.681009 0.666696
vt 0.735055 0.708155
vt 0.680961 0.707676
vt 0.735102 0.667176
vt 0.089252 0.443020
vt 0.093642 0.178909
vt 0.100834 0.412711
vt 0.084310 0.156030
vt 0.248499 0.421091
vt 0.257831 0.443970
vt 0.252889 0.156980
vt 0.241307 0.187289
vt 0.381336 0.281692
vt 0.616960 0.617147
vt 0.381365 0.617298
vt 0.616932 0.281540
vn 0.5774 0.5774 0.5774
vn 0.9045 -0.3015 -0.3015
vn 0.5774 0.5774 -0.5774
vn 0.3015 0.9045 0.3015
vn 0.3015 0.9045 -0.3015
vn 0.9045 -0.3015 0.3015
vn -0.5774 0.5774 0.5774
vn -0.3015 0.9045 0.3015
vn -0.3015 0.9045 -0.3015
vn -0.9045 -0.3015 -0.3015
vn -0.5773 0.5774 -0.5773
vn -0.9045 -0.3015 0.3015
vn 0.5773 0.5774 0.5773
vn 0.5774 0.5773 -0.5774
vn -0.5774 0.5774 -0.5774
vn 0.5774 -0.5774 0.5774
vn 0.5774 -0.5774 -0.5774
vn -0.5774 -0.5774 0.5774
vn -0.5774 -0.5774 -0.5774
usemtl Default_OBJ
s 1
f 1/1/1 2/2/2 3/3/3
f 4/4/4 2/2/2 1/1/1
f 2/2/2 4/4/4 5/5/5
f 6/6/6 3/3/3 2/2/2
f 7/7/5 6/6/6 8/8/4
f 6/6/6 7/7/5 3/3/3
f 9/9/7 4/10/4 1/11/1
f 4/10/4 9/9/7 10/12/8
f 11/13/9 2/14/2 5/15/5
f 2/14/2 11/13/9 12/16/10
f 13/17/11 14/18/12 9/19/7
f 15/20/9 14/18/12 13/17/11
f 14/18/12 15/20/9 16/21/8
f 12/22/10 9/19/7 14/18/12
f 10/23/8 12/22/10 11/24/9
f 12/22/10 10/23/8 9/19/7
f 14/25/12 2/14/2 12/16/10
f 2/14/2 14/25/12 6/26/6
f 17/27/13 4/28/4 18/29/7
f 17/27/13 5/30/5 4/28/4
f 5/30/5 8/31/4 11/32/9
f 19/33/14 5/30/5 17/27/13
f 5/30/5 19/33/14 8/31/4
f 20/34/15 7/35/5 19/33/14
f 8/31/4 19/33/14 7/35/5
f 10/36/8 18/29/7 4/28/4
f 11/32/9 18/29/7 10/36/8
f 16/37/8 11/32/9 8/31/4
f 20/34/15 11/32/9 16/37/8
f 20/34/15 16/37/8 15/38/9
f 11/32/9 20/34/15 18/29/7
f 7/35/5 20/34/15 15/38/9
f 14/25/12 8/39/4 6/26/6
f 8/39/4 14/25/12 16/40/8
f 15/41/9 3/42/3 7/43/5
f 3/42/3 15/41/9 13/44/11
f 3/42/3 9/9/7 1/11/1
f 9/9/7 3/42/3 13/44/11
f 21/45/16 19/46/14 17/47/13
f 19/46/14 21/45/16 22/48/17
f 18/49/7 21/45/16 17/47/13
f 21/45/16 18/49/7 23/50/18
f 24/51/19 19/46/14 22/48/17
f 19/46/14 24/51/19 20/52/15
f 24/51/19 18/49/7 20/52/15
f 18/49/7 24/51/19 23/50/18
f 24/53/19 21/54/16 23/55/18
f 21/54/16 24/53/19 22/56/17
