# Blender v2.90.1 OBJ File: ''
# www.blender.org
mtllib top_left_shelf.mtl
o top_left_shelf
v 1.260000 -0.000000 1.445000
v 1.260000 0.219999 1.085000
v 1.260000 0.219999 1.445000
v 1.260000 -0.000000 1.085000
v 0.629999 0.219999 1.445000
v 0.629999 -0.000000 1.445000
v 1.240000 0.020000 1.085000
v 0.650000 0.020000 1.085000
v 0.629999 -0.000000 1.085000
v 0.629999 0.219999 1.085000
v 0.650000 0.219999 1.085000
v 1.240000 0.219999 1.085000
v 0.650000 0.020000 1.425000
v 1.240000 0.020000 1.425000
v 0.650000 0.219999 1.425000
v 1.240000 0.219999 1.425000
vt 0.887294 0.826899
vt 0.142012 0.205912
vt 0.891873 0.215904
vt 0.137433 0.816907
vt 0.870496 0.530178
vt 0.119875 0.876672
vt 0.120575 0.527504
vt 0.869796 0.879345
vt 0.900855 0.725785
vt 0.876832 0.694334
vt 0.898462 0.376636
vt 0.174553 0.702888
vt 0.150963 0.734919
vt 0.148570 0.385771
vt 0.172377 0.385481
vt 0.874657 0.376926
vt 0.000090 0.000091
vt 0.999910 0.814754
vt 0.000090 0.814755
vt 0.999910 0.000090
vt 0.036179 0.377879
vt 0.784903 0.956788
vt 0.035004 0.954072
vt 0.786077 0.380595
vt 0.104470 0.246268
vt 0.850783 0.825915
vt 0.100907 0.817601
vt 0.854346 0.254582
vt 0.441182 0.000066
vt 0.000066 0.999934
vt 0.000067 0.000066
vt 0.441182 0.999934
vt 0.086383 0.777996
vt 0.110086 0.746117
vt 0.836276 0.773665
vt 0.084526 0.206648
vt 0.108332 0.206511
vt 0.812366 0.742061
vt 0.834420 0.202325
vt 0.810613 0.202463
vt 0.000089 0.000089
vt 0.999911 0.784260
vt 0.000089 0.784260
vt 0.999911 0.000089
vt 0.999933 0.000067
vt 0.000067 0.451982
vt 0.000067 0.000067
vt 0.999933 0.451982
vn 0.5774 -0.5774 0.5774
vn 0.5774 0.5774 -0.5774
vn 0.5774 0.5774 0.5773
vn 0.5774 -0.5774 -0.5774
vn -0.5774 0.5774 0.5774
vn -0.5774 -0.5774 0.5774
vn -0.3015 0.3015 -0.9045
vn 0.3015 0.3015 -0.9045
vn -0.5773 -0.5774 -0.5774
vn -0.5773 0.5774 -0.5774
vn -0.5774 0.5774 -0.5774
vn 0.3015 0.9045 -0.3015
vn -0.3015 0.9045 -0.3015
usemtl Default_OBJ
s 1
f 1/1/1 2/2/2 3/3/3
f 2/2/2 1/1/1 4/4/4
f 5/5/5 1/6/1 3/7/3
f 1/6/1 5/5/5 6/8/6
f 4/9/4 7/10/7 2/11/2
f 4/9/4 8/12/8 7/10/7
f 9/13/9 8/12/8 4/9/4
f 10/14/10 8/12/8 9/13/9
f 8/12/8 10/14/10 11/15/2
f 2/11/2 7/10/7 12/16/11
f 9/17/9 5/18/5 10/19/10
f 5/18/5 9/17/9 6/20/6
f 7/21/7 13/22/2 14/23/11
f 13/22/2 7/21/7 8/24/8
f 9/25/9 1/26/1 6/27/6
f 1/26/1 9/25/9 4/28/4
f 13/29/2 11/30/2 15/31/12
f 11/30/2 13/29/2 8/32/8
f 3/33/3 16/34/13 5/35/5
f 2/36/2 16/34/13 3/33/3
f 16/34/13 2/36/2 12/37/11
f 15/38/12 5/35/5 16/34/13
f 10/39/10 15/38/12 11/40/2
f 15/38/12 10/39/10 5/35/5
f 7/41/7 16/42/13 12/43/11
f 16/42/13 7/41/7 14/44/11
f 13/45/2 16/46/13 14/47/11
f 16/46/13 13/45/2 15/48/12
