# Blender v2.90.1 OBJ File: ''
# www.blender.org
mtllib bottom_right_shelf.mtl
o bottom_right_shelf
v 0.629999 -0.000000 1.085000
v 0.629999 0.219999 0.740000
v 0.629999 0.219999 1.085000
v 0.629999 -0.000000 0.740000
v 0.000000 0.219999 1.085000
v 0.000000 -0.000000 1.085000
v 0.000000 -0.000000 0.740000
v 0.000000 0.219999 0.740000
v 0.610000 0.020000 0.759999
v 0.020000 0.020000 1.065000
v 0.610000 0.020000 1.065000
v 0.020000 0.020000 0.759999
v 0.020000 0.219999 0.759999
v 0.020000 0.219999 1.065000
v 0.610000 0.219999 1.065000
v 0.610000 0.219999 0.759999
vt 0.887855 0.877075
vt 0.142346 0.230405
vt 0.892211 0.239512
vt 0.137990 0.867968
vt 0.827080 0.357690
vt 0.079781 0.716720
vt 0.077194 0.367567
vt 0.829667 0.706842
vt 0.833107 0.435591
vt 0.086156 0.795906
vt 0.083231 0.446758
vt 0.836032 0.784738
vt 0.096161 0.130534
vt 0.841028 0.778521
vt 0.091172 0.768090
vt 0.846017 0.140966
vt 0.000083 0.000083
vt 0.999917 0.689237
vt 0.000083 0.689236
vt 0.999917 0.000083
vt 0.845457 0.781587
vt 0.098601 0.226680
vt 0.848485 0.234053
vt 0.095573 0.774215
vt 0.491800 0.000070
vt 0.000070 0.999930
vt 0.000070 0.000070
vt 0.491800 0.999929
vt 0.000086 0.730123
vt 0.031825 0.687802
vt 0.999915 0.730123
vt 0.031824 0.042406
vt 0.000085 0.000087
vt 0.968174 0.042404
vt 0.968174 0.687802
vt 0.999914 0.000085
vt 0.999906 0.874239
vt 0.000093 0.874239
vt 0.999906 0.000093
vt 0.999933 0.000067
vt 0.000067 0.451982
vt 0.000067 0.000067
vt 0.999933 0.451982
vt 0.127921 0.696540
vt 0.876686 0.353066
vt 0.877837 0.692010
vt 0.126769 0.357596
vn 0.5774 -0.5774 0.5774
vn 0.5774 0.5773 -0.5774
vn 0.5774 0.5774 0.5774
vn 0.5774 -0.5774 -0.5774
vn -0.5774 0.5773 0.5774
vn -0.5774 -0.5774 0.5774
vn -0.5774 -0.5774 -0.5774
vn -0.5774 0.5774 -0.5774
vn -0.5774 0.5774 0.5774
vn 0.5774 0.5774 -0.5774
vn 0.3015 0.9045 0.3015
vn 0.3015 0.9045 -0.3015
vn -0.3015 0.9045 -0.3015
vn -0.3015 0.9045 0.3015
usemtl Default_OBJ
s 1
f 1/1/1 2/2/2 3/3/3
f 2/2/2 1/1/1 4/4/4
f 5/5/5 1/6/1 3/7/3
f 1/6/1 5/5/5 6/8/6
f 7/9/7 2/10/2 4/11/4
f 2/10/2 7/9/7 8/12/8
f 7/13/7 5/14/5 8/15/8
f 5/14/5 7/13/7 6/16/6
f 9/17/9 10/18/10 11/19/8
f 10/18/10 9/17/9 12/20/3
f 7/21/7 1/22/1 6/23/6
f 1/22/1 7/21/7 4/24/4
f 10/25/10 13/26/11 14/27/12
f 13/26/11 10/25/10 12/28/3
f 3/29/3 15/30/13 5/31/5
f 3/29/3 16/32/14 15/30/13
f 16/32/14 2/33/2 13/34/11
f 2/33/2 16/32/14 3/29/3
f 14/35/12 5/31/5 15/30/13
f 13/34/11 5/31/5 14/35/12
f 13/34/11 8/36/8 5/31/5
f 8/36/8 13/34/11 2/33/2
f 9/17/9 15/37/13 16/38/14
f 15/37/13 9/17/9 11/39/8
f 13/40/11 9/41/9 16/42/14
f 9/41/9 13/40/11 12/43/3
f 10/44/10 15/45/13 11/46/8
f 15/45/13 10/44/10 14/47/12
