####
#
# OBJ File Generated by Meshlab
#
####
# Object playtable_visual.obj
#
# Vertices: 68
# Faces: 132
#
####
vn 0.577350 -0.577350 0.577350
v 1.400000 0.000000 1.360000
vn 0.904537 0.301501 0.301512
v 1.400000 0.400000 0.740000
vn 0.577349 0.577352 0.577349
v 1.400000 0.400000 1.360000
vn 0.904534 0.301511 -0.301511
v 1.400000 0.070000 0.700000
vn 0.577350 -0.577350 -0.577350
v 1.400000 0.000000 0.000000
vn 0.577350 0.577350 -0.577350
v 1.400000 0.070000 0.000000
vn 0.577350 0.577350 0.577350
v 1.400000 0.799999 0.740000
vn 0.904534 -0.301511 -0.301511
v 1.400000 0.730000 0.700000
vn 0.577350 0.577350 -0.577350
v 1.400000 0.799999 0.000000
vn 0.577350 -0.577350 -0.577350
v 1.400000 0.730000 0.000000
vn -0.577350 0.577351 0.577350
v 0.000000 0.799999 0.740000
vn -0.904534 0.301511 0.301511
v 0.000000 0.400000 0.740000
vn -0.904534 0.301511 -0.301511
v 0.000000 0.070000 0.700000
vn 0.301511 -0.301511 -0.904534
v 0.070000 0.730000 0.700000
vn 0.301511 0.301511 -0.904534
v 0.070000 0.070000 0.700000
vn -0.904534 -0.301511 -0.301511
v 0.000000 0.730000 0.700000
vn -0.301511 0.301511 -0.904534
v 1.330000 0.070000 0.700000
vn -0.301511 -0.904534 -0.301511
v 1.330000 0.000000 0.700000
vn -0.301511 -0.301511 -0.904534
v 1.330000 0.730000 0.700000
vn 0.301511 -0.904534 -0.301511
v 0.070000 0.000000 0.700000
vn -0.301511 0.904534 -0.301511
v 1.330000 0.799999 0.700000
vn 0.301511 0.904534 -0.301511
v 0.070000 0.799999 0.700000
vn -0.577350 0.577350 -0.577350
v 0.000000 0.070000 0.000000
vn -0.577350 -0.577350 -0.577350
v 0.000000 0.000000 0.000000
vn -0.577350 0.577350 -0.577350
v 0.000000 0.799999 0.000000
vn -0.577350 -0.577350 -0.577350
v 0.000000 0.730000 0.000000
vn -0.577350 -0.577350 0.577350
v 0.000000 0.000000 1.360000
vn -0.577351 0.577348 0.577351
v 0.000000 0.400000 1.360000
vn -0.577350 0.577350 -0.577350
v 1.330000 0.799999 0.000000
vn 0.577350 0.577350 -0.577350
v 0.070000 0.799999 0.000000
vn 0.577350 -0.577350 -0.577350
v 0.070000 0.000000 0.000000
vn -0.577350 -0.577350 -0.577350
v 1.330000 0.000000 0.000000
vn 0.577350 0.577350 -0.577350
v 0.070000 0.070000 0.000000
vn -0.577350 0.577350 -0.577350
v 1.330000 0.070000 0.000000
vn 0.577350 -0.577350 -0.577350
v 0.070000 0.730000 0.000000
vn -0.577350 -0.577350 -0.577350
v 1.330000 0.730000 0.000000
vn -0.577350 0.577350 0.577350
v 1.380000 0.020000 1.060000
vn 0.577350 0.577350 -0.577350
v 0.730000 0.020000 1.340000
vn -0.577350 0.577350 -0.577350
v 1.380000 0.020000 1.340000
vn 0.577350 0.577350 0.577350
v 0.730000 0.020000 1.060000
vn -0.577350 0.577350 0.577350
v 0.690000 0.020000 1.060000
vn 0.577350 0.577350 -0.577350
v 0.020000 0.020000 1.340000
vn -0.577350 0.577350 -0.577350
v 0.690000 0.020000 1.340000
vn 0.577350 0.577350 0.577350
v 0.020000 0.020000 1.060000
vn -0.577350 0.577350 0.577350
v 0.690000 0.020000 0.759999
vn 0.577350 0.577350 -0.577350
v 0.020000 0.020000 1.040000
vn -0.577350 0.577350 -0.577350
v 0.690000 0.020000 1.040000
vn 0.577350 0.577350 0.577350
v 0.020000 0.020000 0.759999
vn -0.577350 0.577350 0.577350
v 1.380000 0.020000 0.759999
vn 0.577350 0.577350 -0.577350
v 0.730000 0.020000 1.040000
vn -0.577350 0.577350 -0.577350
v 1.380000 0.020000 1.040000
vn 0.577350 0.577350 0.577350
v 0.730000 0.020000 0.759999
vn -0.301511 0.904534 -0.301511
v 1.380000 0.400000 1.340000
vn 0.301511 0.904534 -0.301511
v 0.730000 0.400000 1.340000
vn -0.301511 0.904534 -0.301511
v 0.690000 0.400000 1.340000
vn 0.301511 0.904534 -0.301511
v 0.020000 0.400000 1.340000
vn 0.301511 0.904534 0.301511
v 0.020000 0.400000 0.759999
vn -0.301511 0.904534 0.301511
v 0.690000 0.400000 0.759999
vn 0.301511 0.904534 0.301511
v 0.730000 0.400000 0.759999
vn -0.301511 0.904534 0.301511
v 1.380000 0.400000 0.759999
vn -0.301511 0.904534 -0.301511
v 0.690000 0.400000 1.040000
vn 0.301511 0.904534 -0.301511
v 0.730000 0.400000 1.040000
vn 0.301511 0.904534 0.301511
v 0.730000 0.400000 1.060000
vn -0.301511 0.904534 0.301511
v 0.690000 0.400000 1.060000
vn -0.301511 0.904534 0.301511
v 1.380000 0.400000 1.060000
vn -0.301511 0.904534 -0.301511
v 1.380000 0.400000 1.040000
vn 0.301511 0.904534 0.301511
v 0.020000 0.400000 1.060000
vn 0.301511 0.904534 -0.301511
v 0.020000 0.400000 1.040000
# 68 vertices, 0 vertices normals

f 1//1 2//2 3//3
f 2//2 1//1 4//4
f 5//5 4//4 1//1
f 4//4 5//5 6//6
f 7//7 8//8 9//9
f 2//2 8//8 7//7
f 8//8 2//2 4//4
f 9//9 8//8 10//10
f 11//11 2//2 7//7
f 2//2 11//11 12//12
f 13//13 14//14 15//15
f 14//14 13//13 16//16
f 15//15 17//17 18//18
f 17//17 15//15 19//19
f 15//15 18//18 20//20
f 14//14 19//19 15//15
f 19//19 14//14 21//21
f 21//21 14//14 22//22
f 17//17 8//8 4//4
f 8//8 17//17 19//19
f 23//23 24//24 13//13
f 16//16 25//25 26//26
f 25//25 16//16 11//11
f 16//16 12//12 11//11
f 13//13 12//12 16//16
f 27//27 12//12 13//13
f 12//12 27//27 28//28
f 27//27 13//13 24//24
f 7//7 21//21 11//11
f 9//9 21//21 7//7
f 21//21 9//9 29//29
f 22//22 11//11 21//21
f 25//25 22//22 30//30
f 22//22 25//25 11//11
f 27//27 20//20 1//1
f 24//24 20//20 27//27
f 20//20 24//24 31//31
f 18//18 1//1 20//20
f 5//5 18//18 32//32
f 18//18 5//5 1//1
f 20//20 33//33 15//15
f 33//33 20//20 31//31
f 24//24 33//33 31//31
f 33//33 24//24 23//23
f 33//33 13//13 15//15
f 13//13 33//33 23//23
f 32//32 6//6 5//5
f 6//6 32//32 34//34
f 32//32 17//17 34//34
f 17//17 32//32 18//18
f 6//6 17//17 4//4
f 17//17 6//6 34//34
f 14//14 30//30 22//22
f 30//30 14//14 35//35
f 26//26 30//30 35//35
f 30//30 26//26 25//25
f 26//26 14//14 16//16
f 14//14 26//26 35//35
f 36//36 9//9 10//10
f 9//9 36//36 29//29
f 36//36 21//21 29//29
f 21//21 36//36 19//19
f 36//36 8//8 19//19
f 8//8 36//36 10//10
f 37//37 38//38 39//39
f 38//38 37//37 40//40
f 41//41 42//42 43//43
f 42//42 41//41 44//44
f 45//45 46//46 47//47
f 46//46 45//45 48//48
f 49//49 50//50 51//51
f 50//50 49//49 52//52
f 38//38 53//53 39//39
f 53//53 38//38 54//54
f 42//42 55//55 43//43
f 55//55 42//42 56//56
f 57//57 45//45 58//58
f 45//45 57//57 48//48
f 59//59 49//49 60//60
f 49//49 59//59 52//52
f 59//59 61//61 62//62
f 61//61 59//59 58//58
f 63//63 55//55 54//54
f 55//55 63//63 64//64
f 54//54 3//3 53//53
f 3//3 65//65 53//53
f 62//62 63//63 65//65
f 63//63 62//62 64//64
f 62//62 65//65 66//66
f 3//3 66//66 65//65
f 2//2 66//66 3//3
f 2//2 59//59 60//60
f 59//59 2//2 58//58
f 12//12 58//58 2//2
f 66//66 2//2 60//60
f 3//3 54//54 28//28
f 55//55 28//28 54//54
f 56//56 28//28 55//55
f 67//67 28//28 56//56
f 61//61 64//64 62//62
f 64//64 61//61 67//67
f 68//68 67//67 61//61
f 68//68 28//28 67//67
f 12//12 68//68 57//57
f 68//68 12//12 28//28
f 58//58 12//12 57//57
f 67//67 41//41 64//64
f 41//41 67//67 44//44
f 63//63 37//37 65//65
f 37//37 63//63 40//40
f 46//46 61//61 47//47
f 61//61 46//46 68//68
f 50//50 66//66 51//51
f 66//66 50//50 62//62
f 28//28 1//1 3//3
f 1//1 28//28 27//27
f 46//46 57//57 68//68
f 57//57 46//46 48//48
f 45//45 61//61 58//58
f 61//61 45//45 47//47
f 38//38 63//63 54//54
f 63//63 38//38 40//40
f 50//50 59//59 62//62
f 59//59 50//50 52//52
f 37//37 53//53 65//65
f 53//53 37//37 39//39
f 49//49 66//66 60//60
f 66//66 49//49 51//51
f 42//42 67//67 56//56
f 67//67 42//42 44//44
f 41//41 55//55 64//64
f 55//55 41//41 43//43
# 132 faces, 0 coords texture

# End of File
